<svg width="74" height="80" viewBox="0 0 74 80" fill="none" xmlns="http://www.w3.org/2000/svg">
<g clip-path="url(#clip0_1432_1706)">
<path d="M73.2041 44.7373H0.796875V46.32H73.2041V44.7373Z" fill="#0D1D28"/>
<path d="M62.1395 45.5289H60.5467V2.53231C60.5467 2.00475 60.1857 1.5827 59.7503 1.5827H14.2184C13.783 1.5827 13.4326 2.00475 13.4326 2.52176V45.5289H11.8398V2.52176C11.8398 1.12899 12.9123 0 14.2184 0H59.7503C61.067 0 62.1395 1.13954 62.1395 2.53231V45.5289Z" fill="#0D1D28"/>
<path d="M56.4905 45.5282H54.8977V7.96553C54.8977 7.42741 54.5367 6.99481 54.1013 6.99481H20.0161C19.5701 6.99481 19.2197 7.42741 19.2197 7.96553V45.5282H17.627V7.96553C17.627 6.55165 18.6994 5.41211 20.0161 5.41211H54.1013C55.418 5.41211 56.4905 6.5622 56.4905 7.96553V45.5282Z" fill="#0D1D28"/>
<path d="M37.5791 6.52148H35.9863V45.5297H37.5791V6.52148Z" fill="#0D1D28"/>
<path d="M55.11 33.3633H49.2168V34.946H55.11V33.3633Z" fill="#0D1D28"/>
<path d="M71.5047 80.0004H2.49534C1.11494 80.0004 0 78.8819 0 77.5208V75.5372C0 74.1655 1.12556 73.0576 2.49534 73.0576H71.494C72.8744 73.0576 73.9894 74.1761 73.9894 75.5372V77.5208C73.9894 78.8925 72.8638 80.0004 71.494 80.0004H71.5047ZM2.49534 74.6403C1.99627 74.6403 1.59277 75.0413 1.59277 75.5372V77.5208C1.59277 78.0167 1.99627 78.4177 2.49534 78.4177H71.494C71.9931 78.4177 72.3966 78.0167 72.3966 77.5208V75.5372C72.3966 75.0413 71.9931 74.6403 71.494 74.6403H2.49534Z" fill="#0D1D28"/>
<path d="M6.90331 45.5293H5.31055V73.849H6.90331V45.5293Z" fill="#0D1D28"/>
<path d="M19.2627 45.5293H17.6699V73.849H19.2627V45.5293Z" fill="#0D1D28"/>
<path d="M31.624 45.5293H30.0312V73.849H31.624V45.5293Z" fill="#0D1D28"/>
<path d="M43.9814 45.5293H42.3887V73.849H43.9814V45.5293Z" fill="#0D1D28"/>
<path d="M56.333 45.5293H54.7402V73.849H56.333V45.5293Z" fill="#0D1D28"/>
<path d="M68.7021 45.5293H67.1094V73.849H68.7021V45.5293Z" fill="#0D1D28"/>
<path d="M30.3967 13.9007L22.1367 18.7393L22.9456 20.1027L31.2056 15.2641L30.3967 13.9007Z" fill="#0D1D28"/>
<path d="M30.9573 18.8694L22.6973 23.708L23.5061 25.0714L31.7661 20.2328L30.9573 18.8694Z" fill="#0D1D28"/>
</g>
<defs>
<clipPath id="clip0_1432_1706">
<rect width="74" height="80" fill="white"/>
</clipPath>
</defs>
</svg>
