<svg width="79" height="80" viewBox="0 0 79 80" fill="none" xmlns="http://www.w3.org/2000/svg">
<g clip-path="url(#clip0_1432_1759)">
<path d="M64.3992 23.1146H13.6007L0.189984 1.89723C-0.0523145 1.51779 -0.0628493 1.03294 0.15838 0.642951C0.37961 0.252964 0.790464 0 1.24346 0H77.7678C78.2313 0 78.6422 0.252964 78.8634 0.664032C79.0846 1.0751 79.053 1.55995 78.7897 1.93939L64.4097 23.1146H64.3992ZM14.4751 21.5336H63.567L77.1146 1.58103H1.86501L14.4751 21.5336Z" fill="#0D1D28"/>
<path d="M1.25286 79.9789C1.07377 79.9789 0.884149 79.9367 0.715593 79.8524C0.283669 79.6416 0.00976562 79.2094 0.00976562 78.7246V1.16992H1.58998V78.0395L13.6206 68.4374V22.577H15.2009V69.1963L2.03244 79.7048C1.81121 79.884 1.5373 79.9789 1.25286 79.9789Z" fill="#0D1D28"/>
<path d="M77.5361 80C77.2201 80 76.9146 79.8946 76.6512 79.6944L63.1035 69.2385L64.0727 67.9842L77.4202 78.282V0.969727H79.0004V78.5349C79.0004 79.0936 78.6844 79.5995 78.1893 79.8419C77.9786 79.9473 77.7573 79.9895 77.5466 79.9895L77.5361 80Z" fill="#0D1D28"/>
<path d="M64.463 69.2278H14.0332V67.6467H62.8828V22.208H64.463V69.2278Z" fill="#0D1D28"/>
<path d="M24.3556 11.5518H22.7754V75.7942H24.3556V11.5518Z" fill="#0D1D28"/>
<path d="M28.1168 64.0318V63.0516L31.2667 60.0687C31.5195 59.8158 31.7197 59.6049 31.8461 59.4152C31.9725 59.2255 32.0568 59.0463 32.1095 58.8882C32.1516 58.7301 32.1727 58.572 32.1727 58.435C32.1727 58.0766 32.0463 57.792 31.7934 57.5918C31.5406 57.3915 31.1719 57.2966 30.6768 57.2966C30.2975 57.2966 29.9499 57.3599 29.6444 57.4969C29.3283 57.6339 29.065 57.8342 28.8332 58.1082L27.8008 57.3283C28.1063 56.9172 28.5277 56.5905 29.0544 56.3586C29.5812 56.1267 30.1606 56.0107 30.8137 56.0107C31.3826 56.0107 31.8883 56.1056 32.3096 56.2848C32.731 56.464 33.0576 56.7275 33.2894 57.0753C33.5211 57.4231 33.637 57.8131 33.637 58.2769C33.637 58.5404 33.6054 58.8039 33.5317 59.0569C33.4685 59.3098 33.3315 59.5733 33.1419 59.8579C32.9523 60.1425 32.6784 60.4587 32.3202 60.8065L29.6022 63.3678L29.2967 62.8092H33.932V64.0529H28.0958L28.1168 64.0318Z" fill="#0D1D28"/>
<path d="M35.8067 64.1047C35.5434 64.1047 35.3221 64.0203 35.143 63.8412C34.964 63.662 34.8691 63.4406 34.8691 63.156C34.8691 62.8715 34.964 62.6501 35.143 62.4815C35.3221 62.3128 35.5434 62.2285 35.8067 62.2285C36.0596 62.2285 36.2703 62.3128 36.4494 62.4815C36.6284 62.6501 36.7233 62.8715 36.7233 63.156C36.7233 63.4406 36.6284 63.662 36.4494 63.8412C36.2703 64.0203 36.049 64.1047 35.8067 64.1047Z" fill="#0D1D28"/>
<path d="M40.9697 64.1474C40.3166 64.1474 39.7477 64.0525 39.2631 63.8628C38.7785 63.6731 38.4098 63.399 38.1464 63.0406C37.883 62.6823 37.7461 62.2607 37.7461 61.7653C37.7461 61.2699 37.8725 60.8799 38.1253 60.5426C38.3782 60.2053 38.7469 59.9629 39.2315 59.7837C39.7056 59.6045 40.285 59.5202 40.9697 59.5202C41.6545 59.5202 42.2234 59.6045 42.708 59.7837C43.1926 59.9524 43.5718 60.2159 43.8246 60.5426C44.088 60.8799 44.2144 61.2804 44.2144 61.7547C44.2144 62.229 44.0775 62.6717 43.8036 63.0301C43.5297 63.3885 43.1504 63.6625 42.6763 63.8522C42.1917 64.042 41.6229 64.1368 40.9697 64.1368V64.1474ZM40.9697 60.3002C40.3587 60.3002 39.832 60.2159 39.4 60.0472C38.9576 59.8786 38.6205 59.6467 38.3887 59.3305C38.1464 59.0143 38.0305 58.6454 38.0305 58.2027C38.0305 57.7389 38.1569 57.3489 38.3992 57.0222C38.6415 56.6954 38.9892 56.4425 39.4317 56.2633C39.8741 56.0841 40.3903 55.9893 40.9697 55.9893C41.5491 55.9893 42.0759 56.0841 42.5183 56.2633C42.9608 56.4425 43.3084 56.6954 43.5613 57.0222C43.8141 57.3489 43.93 57.7389 43.93 58.2027C43.93 58.6665 43.8141 59.0143 43.5718 59.3305C43.3295 59.6467 42.9924 59.8786 42.5499 60.0472C42.1075 60.2159 41.5807 60.3002 40.9592 60.3002H40.9697ZM40.9697 62.9985C41.507 62.9985 41.9389 62.8825 42.255 62.6507C42.571 62.4188 42.729 62.1026 42.729 61.7126C42.729 61.3226 42.571 61.0064 42.255 60.785C41.9389 60.5637 41.507 60.4478 40.9697 60.4478C40.4324 60.4478 40.0005 60.5637 39.6845 60.785C39.3684 61.0064 39.2104 61.3226 39.2104 61.7126C39.2104 62.1026 39.3684 62.4188 39.6845 62.6507C40.0005 62.8825 40.4219 62.9985 40.9697 62.9985ZM40.9697 59.3832C41.4438 59.3832 41.8125 59.2883 42.0759 59.0881C42.3392 58.8878 42.4762 58.6243 42.4762 58.2765C42.4762 57.9287 42.3392 57.6441 42.0653 57.4438C41.7914 57.2435 41.4227 57.1487 40.9697 57.1487C40.5167 57.1487 40.1585 57.2435 39.8846 57.4438C39.6107 57.6441 39.4843 57.9181 39.4843 58.2765C39.4843 58.6348 39.6107 58.8984 39.8741 59.0881C40.1375 59.2883 40.4957 59.3832 40.9697 59.3832Z" fill="#0D1D28"/>
<path d="M56.3303 57.907C56.8149 57.907 57.2363 58.0019 57.6155 58.1916C57.9842 58.3813 58.2792 58.6659 58.4899 59.0664C58.7006 59.467 58.8059 59.9624 58.8059 60.5737V64.0309H57.4048V60.7529C57.4048 60.2153 57.2889 59.8148 57.0466 59.5513C56.8043 59.2878 56.4672 59.1508 56.0353 59.1508C55.7298 59.1508 55.4559 59.214 55.2136 59.351C54.9818 59.4881 54.7922 59.6883 54.6553 59.9518C54.5183 60.2153 54.4551 60.5526 54.4551 60.9531V64.0203H53.054V60.7423C53.054 60.2048 52.9381 59.8043 52.6958 59.5408C52.464 59.2773 52.1269 59.1402 51.6845 59.1402C51.379 59.1402 51.105 59.2035 50.8627 59.3405C50.6204 59.4775 50.4414 59.6778 50.3044 59.9413C50.1675 60.2048 50.1042 60.5421 50.1042 60.9426V64.0098H48.7031V57.9703H50.0516V59.5935L49.7987 59.1086C49.9989 58.7186 50.2939 58.4235 50.6837 58.2127C51.0734 58.0019 51.5159 57.8965 52.0216 57.8965C52.5904 57.8965 53.075 58.0335 53.4964 58.3181C53.9178 58.6027 54.1917 59.0243 54.3181 59.604L53.7703 59.4037C53.96 58.961 54.276 58.5921 54.729 58.3181C55.182 58.044 55.7087 57.8965 56.2987 57.8965L56.3303 57.907Z" fill="#0D1D28"/>
<path d="M39.379 15.3887H37.7988V31.1041H39.379V15.3887Z" fill="#0D1D28"/>
<path d="M45.5726 36.1209H31.7089C31.2665 36.1209 30.8767 35.8574 30.6976 35.4463C30.529 35.0353 30.6238 34.5715 30.9399 34.2658C32.6886 32.5372 38.9357 27.4358 46.2995 34.2342C46.6366 34.5399 46.742 35.0142 46.5734 35.4358C46.4049 35.8574 46.0151 36.1209 45.5621 36.1209H45.5726ZM33.0047 34.5399H44.2136C39.3361 30.7559 35.217 32.7586 33.0047 34.5399Z" fill="#0D1D28"/>
<path d="M38.5998 38.5035C37.2092 38.5035 36.082 37.3757 36.082 35.9844H37.6622C37.6622 36.5008 38.0836 36.9225 38.5998 36.9225C39.116 36.9225 39.5269 36.5008 39.5269 35.9844H41.1071C41.1071 37.3757 39.9799 38.5035 38.5998 38.5035Z" fill="#0D1D28"/>
<path d="M37.8542 40.2751L37.8379 42.8047L39.4181 42.8149L39.4344 40.2853L37.8542 40.2751Z" fill="#0D1D28"/>
<path d="M35.1097 37.9099L33.3145 39.7061L34.4318 40.824L36.2271 39.0278L35.1097 37.9099Z" fill="#0D1D28"/>
<path d="M42.4629 38.084L41.3457 39.2021L43.1413 40.998L44.2585 39.8799L42.4629 38.084Z" fill="#0D1D28"/>
<path d="M27.1693 15.483L23.5665 11.8783L19.9741 15.4725L18.8574 14.3552L22.534 10.6767C23.0819 10.1286 24.0405 10.1286 24.5989 10.6767L28.286 14.3658L27.1693 15.483Z" fill="#0D1D28"/>
<path d="M23.5242 77.133C23.1345 77.133 22.7657 76.9854 22.4918 76.7009L18.8047 73.0118L19.9214 71.8945L23.5242 75.4993L27.1166 71.9051L28.2333 73.0223L24.5567 76.7009C24.2828 76.9749 23.914 77.133 23.5242 77.133Z" fill="#0D1D28"/>
<path d="M77.8313 78.4189H1.27539V80H77.8313V78.4189Z" fill="#0D1D28"/>
</g>
<defs>
<clipPath id="clip0_1432_1759">
<rect width="79" height="80" fill="white"/>
</clipPath>
</defs>
</svg>
