<svg width="82" height="80" viewBox="0 0 82 80" fill="none" xmlns="http://www.w3.org/2000/svg">
<g clip-path="url(#clip0_1432_1734)">
<path d="M65.9788 80.0005H2.91005C1.30159 80.0005 0 78.7039 0 77.1016V15.2437C0 13.6413 1.30159 12.3447 2.91005 12.3447H65.9788C67.5873 12.3447 68.8889 13.6413 68.8889 15.2437V77.1122C68.8889 78.7039 67.5873 80.0111 65.9788 80.0111V80.0005ZM2.91005 13.926C2.17989 13.926 1.5873 14.5163 1.5873 15.2437V77.1122C1.5873 77.8395 2.17989 78.4298 2.91005 78.4298H65.9788C66.709 78.4298 67.3016 77.8395 67.3016 77.1122V15.2437C67.3016 14.5163 66.709 13.926 65.9788 13.926H2.91005Z" fill="#0D1D28"/>
<path d="M72.5821 74.4338H69.0583V72.8525H72.5821C73.3757 72.8525 74.0212 72.2095 74.0212 71.4189V8.69653C74.0212 7.90591 73.3757 7.26288 72.5821 7.26288H9.48153C8.68788 7.26288 8.04238 7.90591 8.04238 8.69653V12.755H6.45508V8.69653C6.45508 7.03096 7.80958 5.68164 9.48153 5.68164H72.5821C74.254 5.68164 75.6085 7.03096 75.6085 8.69653V71.4189C75.6085 73.0845 74.254 74.4338 72.5821 74.4338Z" fill="#0D1D28"/>
<path d="M79.0069 68.0669H75.7265V66.4857H79.0069C79.7794 66.4857 80.4143 65.8532 80.4143 65.0837V2.95164C80.4143 2.20319 79.8006 1.58124 79.0387 1.58124H16.372C15.6101 1.58124 14.9857 2.20319 14.9857 2.96218V6.52523H13.3984V2.96218C13.3984 1.32824 14.7318 0 16.372 0H79.0387C80.6683 0 82.0016 1.3177 82.0016 2.95164V65.0942C82.0016 66.7387 80.6577 68.0775 79.0069 68.0775V68.0669Z" fill="#0D1D28"/>
<path d="M17.02 12.5793L0.232422 29.4434L1.35951 30.5568L18.1471 13.6927L17.02 12.5793Z" fill="#0D1D28"/>
<path d="M17.0249 31.9806L0.228516 48.8359L1.35501 49.9499L18.1514 33.0946L17.0249 31.9806Z" fill="#0D1D28"/>
<path d="M36.7484 12.5854L21.2871 28.1172L22.4142 29.2306L37.8754 13.6989L36.7484 12.5854Z" fill="#0D1D28"/>
<path d="M38.684 68.0717L28.1016 78.6543L29.2261 79.7703L39.8086 69.1876L38.684 68.0717Z" fill="#0D1D28"/>
<path d="M67.5239 58.0014L56.9414 68.584L58.066 69.6999L68.6484 59.1173L67.5239 58.0014Z" fill="#0D1D28"/>
<path d="M67.5258 38.7963L56.9434 49.3789L58.0679 50.4949L68.6504 39.9123L67.5258 38.7963Z" fill="#0D1D28"/>
<path d="M67.5236 19.5938L56.9355 30.1709L58.0595 31.2874L68.6476 20.7104L67.5236 19.5938Z" fill="#0D1D28"/>
<path d="M38.6874 48.8502L9.32422 78.6475L10.4569 79.7552L39.8201 49.958L38.6874 48.8502Z" fill="#0D1D28"/>
<path d="M38.6933 30.0595L0.242188 68.084L1.36046 69.2062L39.8116 31.1817L38.6933 30.0595Z" fill="#0D1D28"/>
<path d="M30.1441 20.3469L29.0176 21.4609L67.1879 59.7651L68.3144 58.6511L30.1441 20.3469Z" fill="#0D1D28"/>
<path d="M42.4771 12.8317L41.332 13.9268L66.3727 39.9119L67.5178 38.8169L42.4771 12.8317Z" fill="#0D1D28"/>
<path d="M30.1469 58.6498L29.0391 59.7822L49.6453 79.7863L50.7531 78.6538L30.1469 58.6498Z" fill="#0D1D28"/>
<path d="M29.9394 39.2673L28.8184 40.3867L46.2142 57.6738L47.3352 56.5543L29.9394 39.2673Z" fill="#0D1D28"/>
<path d="M3.4308 12.8088L2.32617 13.9443L9.34785 20.7228L10.4525 19.5873L3.4308 12.8088Z" fill="#0D1D28"/>
<path d="M1.66223 30.0506L0.541016 31.1699L9.34229 39.9192L10.4635 38.7999L1.66223 30.0506Z" fill="#0D1D28"/>
<path d="M1.85044 48.8347L0.738281 49.9629L10.2365 59.2546L11.3486 58.1264L1.85044 48.8347Z" fill="#0D1D28"/>
<path d="M61.2443 12.5653L60.123 13.6846L67.194 20.7138L68.3152 19.5945L61.2443 12.5653Z" fill="#0D1D28"/>
<path d="M1.65637 68.6903L0.535156 69.8096L9.33643 78.5589L10.4576 77.4396L1.65637 68.6903Z" fill="#0D1D28"/>
<path d="M50.7711 59.816L49.6289 60.9141L66.7282 78.5656L67.8704 77.4676L50.7711 59.816Z" fill="#0D1D28"/>
</g>
<defs>
<clipPath id="clip0_1432_1734">
<rect width="82" height="80" fill="white"/>
</clipPath>
</defs>
</svg>
