<svg width="115" height="80" viewBox="0 0 115 80" fill="none" xmlns="http://www.w3.org/2000/svg">
<g clip-path="url(#clip0_1432_1671)">
<path d="M19.2438 36.5795C19.2438 36.5795 14.145 32.2143 19.0972 24.995C23.1804 19.0349 19.4427 16.1807 19.2857 16.0653L20.207 14.7852C20.2593 14.8271 25.3791 18.6152 20.3955 25.8869C16.2808 31.8995 20.0918 35.2364 20.2489 35.3728L19.2438 36.5795Z" fill="#0D1D28"/>
<path d="M54.6305 21.7943C54.6305 21.7943 49.5317 17.4292 54.4839 10.2099C58.5985 4.19727 54.8399 1.39559 54.6724 1.28017L55.5832 0C55.6356 0.0419727 60.7553 3.83001 55.7717 11.1018C51.6571 17.1144 55.4681 20.4512 55.6251 20.5876L54.62 21.7943H54.6305Z" fill="#0D1D28"/>
<path d="M95.652 37.3773C95.652 37.3773 90.5532 33.0122 95.5054 25.7929C99.5886 19.8327 95.8509 16.9786 95.6939 16.8632L96.6152 15.583C96.6675 15.625 101.787 19.413 96.8037 26.6848C92.689 32.6974 96.5 36.0342 96.6571 36.1706L95.652 37.3773Z" fill="#0D1D28"/>
<path d="M81.9848 24.2397L25.7676 51.5498L26.4526 52.9662L82.6698 25.6561L81.9848 24.2397Z" fill="#0D1D28"/>
<path d="M28.2836 24.9807L27.6035 26.3994L81.9809 52.5811L82.6609 51.1624L28.2836 24.9807Z" fill="#0D1D28"/>
<path d="M54.4325 65.8868C54.0661 65.8868 53.6996 65.8133 53.3646 65.6559L1.48686 41.8259C0.586456 41.4062 0.0106181 40.5248 0.000148333 39.5279C-0.0103214 38.5311 0.534107 37.6392 1.42404 37.1984L52.7259 11.9519C53.4065 11.6161 54.1917 11.6056 54.8827 11.9099L108.792 35.8238C109.713 36.2331 110.289 37.1145 110.31 38.1323C110.331 39.1502 109.755 40.0421 108.844 40.4723L55.5214 65.6559C55.1759 65.8133 54.8094 65.8973 54.4325 65.8973V65.8868ZM53.8567 13.2635C53.7101 13.2635 53.5635 13.295 53.4274 13.3684L2.11504 38.615C1.76954 38.7829 1.56014 39.1187 1.57061 39.5069C1.57061 39.8952 1.79048 40.2205 2.14645 40.3884L54.0242 64.2184C54.2859 64.3443 54.5896 64.3443 54.8513 64.2184L108.174 39.0348C108.53 38.8669 108.739 38.5311 108.739 38.1323C108.739 37.7336 108.519 37.4083 108.153 37.2404L80.5755 25.0159L54.2545 13.337C54.1289 13.2845 53.9928 13.253 53.8567 13.253V13.2635Z" fill="#0D1D28"/>
<path d="M11.5996 58.4054C11.275 58.4054 10.9504 58.3529 10.6364 58.2375C9.92441 57.9751 9.36951 57.461 9.05542 56.7789C8.87743 56.3802 8.7832 55.9814 8.7832 55.5722C8.7832 54.4809 9.43233 53.4736 10.427 53.0119L19.8498 48.6152L20.5094 50.0423L11.0866 54.4389C10.6364 54.6488 10.3537 55.0895 10.3537 55.5722C10.3537 55.7506 10.3955 55.929 10.4793 56.1179C10.6154 56.4117 10.8667 56.6425 11.1703 56.7579C11.4844 56.8734 11.8194 56.8524 12.1231 56.716L24.624 50.8923L25.2836 52.3193L12.7827 58.143C12.4057 58.3214 11.9974 58.4159 11.5891 58.4159L11.5996 58.4054Z" fill="#0D1D28"/>
<path d="M14.9835 57.1141L14.125 55.8024C14.2402 55.729 14.3658 55.645 14.5333 55.5821L15.5698 55.0994L24.6157 50.8916L25.2753 52.3187L15.1615 57.0301C15.0882 57.0616 15.0568 57.0826 14.994 57.1245L14.9835 57.1141Z" fill="#0D1D28"/>
<path d="M29.3875 53.1371L20.0664 57.4854L20.7291 58.9123L30.0502 54.5641L29.3875 53.1371Z" fill="#0D1D28"/>
<path d="M20.185 63.5052C19.8604 63.5052 19.5254 63.4528 19.2113 63.3268C18.4993 63.0645 17.934 62.5503 17.6199 61.8578C17.4419 61.4591 17.3477 61.0603 17.3477 60.6616C17.3477 59.5703 17.9863 58.5629 18.9809 58.1012L29.5135 53.1904L30.1731 54.6175L19.6405 59.5283C19.2008 59.7382 18.9077 60.1789 18.9077 60.6616C18.9077 60.8295 18.9495 61.0183 19.0333 61.1967C19.1694 61.4905 19.4207 61.7214 19.7348 61.8368C20.0489 61.9522 20.3839 61.9417 20.698 61.7948L22.5407 60.9344V60.6511H23.1584L34.3087 55.4465L34.9683 56.8735L21.3576 63.2219C20.9807 63.4003 20.5723 63.4842 20.1745 63.4842L20.185 63.5052Z" fill="#0D1D28"/>
<path d="M23.6416 62.2454H23.3484V61.4689H22.5527L22.982 61.0387L22.8354 60.8603C23.0448 60.6714 23.2647 60.535 23.5055 60.4196L34.2161 55.4248L34.8757 56.8519L24.1755 61.8466C24.0709 61.8991 23.9766 61.9621 23.8719 62.0565L23.6521 62.2454H23.6416Z" fill="#0D1D28"/>
<path d="M39.0081 57.7022L29.4688 62.1523L30.1315 63.5793L39.6708 59.1292L39.0081 57.7022Z" fill="#0D1D28"/>
<path d="M29.0736 68.3418C28.7491 68.3418 28.414 68.2893 28.0999 68.1634C27.388 67.901 26.8226 67.3869 26.5085 66.6943C26.3306 66.3061 26.2363 65.9073 26.2363 65.4981C26.2363 64.4068 26.875 63.3995 27.8696 62.9378L39.0723 57.7227L39.7319 59.1497L28.5397 64.3648C28.0999 64.5747 27.8068 65.0259 27.8068 65.5086C27.8068 65.687 27.8487 65.8654 27.9324 66.0437C28.0685 66.3481 28.3198 66.5789 28.6339 66.6943C28.948 66.8098 29.283 66.7993 29.5867 66.6524L43.8674 59.9892L44.527 61.4163L30.2463 68.0794C29.8693 68.2578 29.461 68.3418 29.0632 68.3418H29.0736Z" fill="#0D1D28"/>
<path d="M43.9854 60.0658L34.3203 64.5684L34.9823 65.9957L44.6474 61.4931L43.9854 60.0658Z" fill="#0D1D28"/>
<path d="M48.7806 62.3181L39.0039 66.8789L39.6666 68.3059L49.4433 63.7451L48.7806 62.3181Z" fill="#0D1D28"/>
<path d="M38.487 73.2003C38.1624 73.2003 37.8379 73.1478 37.5238 73.0324C36.8118 72.77 36.2465 72.2559 35.9324 71.5633C35.7544 71.1646 35.6602 70.7658 35.6602 70.3671C35.6602 69.2758 36.3093 68.2685 37.3039 67.8068L48.9254 62.3818L49.5954 63.8089L49.2185 63.9872L37.9635 69.2338C37.5133 69.4437 37.2306 69.8844 37.2306 70.3671C37.2306 70.535 37.2725 70.7239 37.3563 70.9127C37.4924 71.2066 37.7436 71.4374 38.0577 71.5528C38.3718 71.6683 38.7069 71.6473 39.0105 71.5109L97.8192 44.0922C97.9553 44.0292 98.0705 43.9558 98.1647 43.8613L99.2745 44.9736C99.0442 45.2045 98.772 45.3933 98.4683 45.5297L39.6701 72.9379C39.2932 73.1163 38.8953 73.2003 38.487 73.2003Z" fill="#0D1D28"/>
<path d="M49.2615 73.0747L48.6019 71.6476L103.003 46.2961C103.003 46.2961 103.108 46.2331 103.17 46.2017C103.516 45.9603 103.725 45.5826 103.725 45.1523C103.725 44.974 103.683 44.7851 103.61 44.6277C103.317 43.9981 102.584 43.7253 101.935 44.0191L44.5815 70.7557L43.9219 69.3286L101.286 42.592C102.699 41.9414 104.385 42.5605 105.034 43.9561C105.201 44.3234 105.296 44.7326 105.296 45.1418C105.296 46.0862 104.835 46.9677 104.05 47.5028C103.924 47.5868 103.809 47.6497 103.683 47.7127L49.2615 73.0747Z" fill="#0D1D28"/>
<path d="M48.1928 77.8588C47.1249 77.8588 46.0988 77.2502 45.6172 76.2324C45.4392 75.8442 45.3555 75.4454 45.3555 75.0362C45.3555 73.9449 45.9941 72.9375 46.9783 72.4758L103.368 46.1904L104.028 47.6175L47.6483 73.9029C47.2086 74.1128 46.9259 74.5535 46.9259 75.0467C46.9259 75.2355 46.9678 75.4139 47.0411 75.5923C47.3343 76.2114 48.0671 76.4842 48.7058 76.1904L107.504 48.7822C107.598 48.7403 107.682 48.6773 107.776 48.6039L108.802 49.8001C108.614 49.968 108.404 50.1044 108.174 50.2093L49.3654 77.628C48.9885 77.8064 48.5802 77.8903 48.1823 77.8903L48.1928 77.8588Z" fill="#0D1D28"/>
<path d="M54.1088 80.0005L53.4492 78.5734L112.708 50.9449C113.179 50.6826 113.431 50.2524 113.431 49.8116C113.431 49.6437 113.389 49.4549 113.305 49.266C113.169 48.9617 112.918 48.7413 112.603 48.6259C112.289 48.5105 111.954 48.5315 111.651 48.6679L54.1088 75.4884L53.4492 74.0614L110.991 47.2408C111.672 46.9155 112.436 46.884 113.148 47.1464C113.86 47.4087 114.425 47.9334 114.739 48.6154C114.917 49.0142 115.001 49.4129 115.001 49.8011C115.001 50.819 114.446 51.7739 113.546 52.267C113.525 52.288 113.42 52.3405 113.336 52.372L54.1088 79.99V80.0005Z" fill="#0D1D28"/>
<path d="M98.7519 45.3096L98.375 45.1207L99.0555 43.7041L99.4534 43.9035L98.7519 45.3096Z" fill="#0D1D28"/>
<path d="M103.379 47.6075L103.285 47.5655L103.934 46.1279L103.379 47.6075Z" fill="#0D1D28"/>
</g>
<defs>
<clipPath id="clip0_1432_1671">
<rect width="115" height="80" fill="white"/>
</clipPath>
</defs>
</svg>
