<svg width="74" height="80" viewBox="0 0 74 80" fill="none" xmlns="http://www.w3.org/2000/svg">
<g clip-path="url(#clip0_1432_1725)">
<path d="M71.503 80H2.497C1.12153 80 0 78.882 0 77.5109V75.5174C0 74.1463 1.12153 73.0283 2.497 73.0283H71.503C72.8785 73.0283 74 74.1463 74 75.5174V77.5109C74 78.882 72.8785 80 71.503 80ZM2.497 74.6209C1.99971 74.6209 1.58707 75.0217 1.58707 75.528V77.5214C1.58707 78.0171 1.98913 78.4285 2.497 78.4285H71.503C72.0003 78.4285 72.4129 78.0277 72.4129 77.5214V75.528C72.4129 75.0323 72.0109 74.6209 71.503 74.6209H2.497Z" fill="#0D1D28"/>
<path d="M69.7787 73.8299H68.1916V2.46803C68.1916 1.98286 67.7896 1.58207 67.3029 1.58207H7.1845C6.67663 1.58207 6.27457 1.99341 6.27457 2.48912V73.8299H4.6875V2.48912C4.6875 1.118 5.80903 0 7.1845 0H67.3029C68.6678 0 69.7787 1.10745 69.7787 2.46803V73.8299Z" fill="#0D1D28"/>
<path d="M63.4096 73.8296H61.8226V7.87837C61.8226 7.57251 61.5686 7.31937 61.2618 7.31937H12.8349C12.4751 7.31937 12.1789 7.61469 12.1789 7.9733V73.8296H10.5918V7.9733C10.5918 6.73928 11.5969 5.7373 12.8349 5.7373H61.2618C62.4468 5.7373 63.4096 6.69709 63.4096 7.87837V73.8296Z" fill="#0D1D28"/>
<path d="M37.7922 6.51758H36.2051V73.8294H37.7922V6.51758Z" fill="#0D1D28"/>
<path d="M27.5859 18.8517L16.7031 25.2471L17.5091 26.6099L28.3919 20.2146L27.5859 18.8517Z" fill="#0D1D28"/>
<path d="M28.3379 25.4103L17.4551 31.8057L18.2611 33.1685L29.1439 26.7732L28.3379 25.4103Z" fill="#0D1D28"/>
</g>
<defs>
<clipPath id="clip0_1432_1725">
<rect width="74" height="80" fill="white"/>
</clipPath>
</defs>
</svg>
