<svg width="916" height="556" viewBox="0 0 916 556" fill="none" xmlns="http://www.w3.org/2000/svg">
<g opacity="0.4">
<path d="M74.3541 0.281692C98.6348 53.7421 155.357 120.692 241.598 148.672C333.583 178.45 440.881 159.164 560.672 91.5141C704.039 10.5741 819.196 -15.1069 934.554 8.27577C1182.6 58.6384 1193.48 226.014 1193.78 245.7H1193.98V555.27H1119.53C1105.43 514.601 1055.86 405.881 919.24 372.806C842.469 354.319 764.69 394.589 622.432 473.631C474.632 555.67 339.729 572.657 221.449 524.094C85.4365 468.335 11.587 333.235 0.000854492 283.272V0.281692H74.3541ZM1119.63 246.499C1119.63 246.499 1119.63 246.499 1119.53 246.399C1119.43 240.004 1114.09 119.893 919.542 80.5222C822.017 60.7369 725.6 83.2202 597.446 155.567C458.714 233.909 331.266 255.193 218.527 218.82C159.185 199.634 110.926 165.859 74.2533 128.187V132.484C84.3284 174.952 138.632 252.595 228.299 292.365C327.236 336.333 443.299 321.644 563.997 249.997C709.077 163.761 819.901 136.98 934.453 160.163C1022.81 178.05 1081.04 210.926 1119.53 246.499V246.799H1119.83C1119.83 246.799 1119.73 246.699 1119.63 246.599V246.499ZM249.961 456.044C346.076 495.515 459.218 479.726 586.162 409.279C726.708 331.236 828.163 274.778 936.871 301.259C1021.8 321.843 1080.14 365.511 1119.73 410.678V398.487H1119.63C1119.63 397.188 1118.42 272.68 919.643 232.31C824.939 213.024 729.932 237.206 602.181 313.05C422.343 419.871 283.107 397.287 197.974 359.515C149.312 337.931 107.702 306.655 75.3616 272.48C75.3616 272.48 75.3616 272.38 75.3616 272.28C75.0593 271.381 74.7571 270.382 74.4548 269.482C73.951 267.783 73.4474 266.285 73.0443 264.786L69.3167 265.685C70.9286 267.484 72.6414 269.382 74.4548 271.181C74.7571 271.581 75.0593 271.88 75.4624 272.28C90.2726 314.849 143.166 411.977 250.061 455.844L249.961 456.044Z" fill="#F5F1E5"/>
</g>
</svg>
