<svg width="119" height="81" viewBox="0 0 119 81" fill="none" xmlns="http://www.w3.org/2000/svg">
<g clip-path="url(#clip0_1432_1451)">
<path d="M90.9133 75.2853L51.919 75.3957C48.7541 75.4047 46.1747 72.8399 46.1658 69.675L46.0631 33.401C46.0542 30.2362 48.619 27.6568 51.7838 27.6478L90.7781 27.5374C93.943 27.5285 96.5223 30.0933 96.5313 33.2582L96.634 69.5322C96.6429 72.697 94.0781 75.2764 90.9133 75.2853ZM51.7883 29.2355C49.502 29.242 47.6444 31.1102 47.6508 33.3965L47.7535 69.6705C47.76 71.9568 49.6282 73.8145 51.9145 73.808L90.9088 73.6976C93.1951 73.6912 95.0527 71.823 95.0462 69.5367L94.9436 33.2626C94.9371 30.9763 93.0689 29.1187 90.7826 29.1252L51.7883 29.2355Z" fill="#0D1D28"/>
<path d="M102.5 39.7094L100.912 39.7139L100.894 33.236C100.887 30.9497 99.1461 29.0917 97.0079 29.0978L45.6506 29.2431C43.5125 29.2492 41.7713 31.117 41.7778 33.4139L41.7961 39.8812L40.2084 39.8857L40.1901 33.4184C40.1811 30.2536 42.6295 27.6639 45.6462 27.6554L97.0035 27.51C100.01 27.5015 102.472 30.0667 102.481 33.2315L102.5 39.7094Z" fill="#0D1D28"/>
<path d="M55.9259 70.1339C54.4758 70.138 53.287 68.9558 53.2829 67.5057C53.2787 66.0556 54.4609 64.8668 55.911 64.8627C57.3611 64.8586 58.55 66.0407 58.5541 67.4908C58.5582 68.9409 57.376 70.1298 55.9259 70.1339ZM55.9155 66.4504C55.3439 66.452 54.8689 66.9191 54.8706 67.5012C54.8722 68.0834 55.3393 68.5478 55.9214 68.5462C56.5036 68.5445 56.968 68.0775 56.9663 67.4953C56.9647 66.9131 56.4977 66.4487 55.9155 66.4504Z" fill="#0D1D28"/>
<path d="M87.1525 70.046C85.7024 70.0501 84.5135 68.8679 84.5094 67.4178C84.5053 65.9677 85.6874 64.7789 87.1376 64.7748C88.5877 64.7707 89.7765 65.9528 89.7806 67.4029C89.7847 68.853 88.6026 70.0419 87.1525 70.046ZM87.1421 66.3625C86.5705 66.3641 86.0955 66.8312 86.0971 67.4133C86.0988 67.9955 86.5658 68.4599 87.148 68.4583C87.7301 68.4566 88.1946 67.9896 88.1929 67.4074C88.1913 66.8252 87.7242 66.3608 87.1421 66.3625Z" fill="#0D1D28"/>
<path d="M49.5766 29.7932L48.2932 28.8654L51.9834 23.753C53.1538 22.1408 55.1516 21.1719 57.3215 21.1658L85.3499 21.0865C87.3928 21.0807 89.3323 21.9537 90.5219 23.4111L94.4944 28.2689L93.2694 29.2779L89.2969 24.4201C88.4047 23.3324 86.9316 22.6803 85.3545 22.6848L57.326 22.7641C55.6853 22.7687 54.1209 23.5035 53.2669 24.6914L49.5766 29.8038L49.5766 29.7932Z" fill="#0D1D28"/>
<path d="M24.3455 22.7719L22.7578 22.7764L22.8506 55.5468L24.4383 55.5423L24.3455 22.7719Z" fill="#0D1D28"/>
<path d="M23.5525 22.849C17.3393 22.8665 12.276 17.8319 12.2584 11.6186C12.2409 5.40538 17.2861 0.342124 23.4888 0.324567C29.6914 0.30701 34.7652 5.34162 34.7828 11.5549C34.8004 17.7681 29.7658 22.8314 23.5525 22.849ZM23.4932 1.91228C18.1585 1.92738 13.8311 6.27942 13.8462 11.6141C13.8613 16.9489 18.2133 21.2763 23.548 21.2612C28.8827 21.2461 33.2102 16.8941 33.1951 11.5594C33.18 6.22465 28.828 1.89718 23.4932 1.91228Z" fill="#0D1D28"/>
<path d="M30.9869 80.3033L16.4434 80.3444L16.3916 62.0434C16.3803 58.0318 19.6312 54.773 23.6322 54.7617C25.5693 54.7562 27.4026 55.5131 28.7825 56.8852C30.1624 58.2574 30.9297 60.0758 30.9351 62.0128L30.9869 80.3139L30.9869 80.3033ZM18.0267 78.7522L29.3947 78.7201L29.3474 62.0067C29.3431 60.4931 28.7464 59.0764 27.6637 57.9998C26.581 56.9232 25.1609 56.3345 23.6367 56.3388C20.5036 56.3477 17.9705 58.9058 17.9793 62.0283L18.0266 78.7416L18.0267 78.7522Z" fill="#0D1D28"/>
<path d="M118.77 78.4672L0.220703 78.8027L0.225197 80.3904L118.775 80.0549L118.77 78.4672Z" fill="#0D1D28"/>
<path d="M89.1466 60.8851L55.4447 60.9805C55.2119 60.9812 55.0001 60.95 54.82 60.887L48.3905 59.3175C48.221 59.2756 48.0411 59.2867 47.9037 59.3612L47.2222 57.9236C47.6979 57.7 48.2482 57.6455 48.7778 57.7816L55.2602 59.3616C55.3238 59.3826 55.3556 59.3931 55.4402 59.3928L89.1421 59.2974C89.2374 59.2971 89.3115 59.2969 89.3749 59.265L95.5508 57.247L96.0419 58.7592L89.8661 60.7773C89.644 60.852 89.4007 60.8844 89.1361 60.8852L89.1466 60.8851Z" fill="#0D1D28"/>
<path d="M57.5642 80.2282L54.4735 80.237C52.6741 80.2421 51.1988 78.8279 51.1938 77.0814L51.1855 74.1494L52.7733 74.1449L52.7816 77.0769C52.784 77.9448 53.5375 78.6519 54.469 78.6493L57.5598 78.6405C58.4806 78.6379 59.2301 77.9266 59.2277 77.0587L59.2199 74.3066L60.8076 74.3021L60.8154 77.0542C60.8203 78.8006 59.3637 80.2231 57.5642 80.2282Z" fill="#0D1D28"/>
<path d="M87.8475 80.1423L84.7567 80.151C82.9573 80.1561 81.482 78.7419 81.477 76.9955L81.4688 74.0635L83.0565 74.059L83.0648 76.991C83.0672 77.8589 83.8208 78.566 84.7522 78.5633L87.843 78.5546C88.7638 78.552 89.5133 77.8407 89.5109 76.9727L89.5031 74.2207L91.0908 74.2162L91.0986 76.9682C91.1036 78.7147 89.6469 80.1372 87.8475 80.1423Z" fill="#0D1D28"/>
<path d="M78.4084 69.8387L65.7808 69.8745C64.5742 69.8779 63.587 68.8963 63.5836 67.6896L63.5824 67.2662C63.579 66.0596 64.5606 65.0724 65.7672 65.069L78.3948 65.0333C79.6015 65.0298 80.5887 66.0114 80.5921 67.2181L80.5933 67.6415C80.5967 68.8482 79.6151 69.8353 78.4084 69.8387ZM65.7717 66.6567C65.433 66.6577 65.1692 66.9336 65.1701 67.2617L65.1713 67.6851C65.1722 68.0239 65.4482 68.2877 65.7763 68.2868L78.404 68.251C78.7427 68.2501 79.0065 67.9741 79.0056 67.646L79.0044 67.2226C79.0034 66.8839 78.7275 66.62 78.3993 66.621L65.7717 66.6567Z" fill="#0D1D28"/>
</g>
<defs>
<clipPath id="clip0_1432_1451">
<rect width="118.55" height="80" fill="white" transform="translate(0 0.390625) rotate(-0.162178)"/>
</clipPath>
</defs>
</svg>
