<svg width="119" height="81" viewBox="0 0 119 81" fill="none" xmlns="http://www.w3.org/2000/svg">
<g clip-path="url(#clip0_1432_1467)">
<path d="M118.703 15.2681L118.707 16.6136L118.527 16.9637L111.535 13.3495L109.944 12.5277L89.2751 1.83257C89.0099 1.69559 88.692 1.69649 88.4276 1.83497L67.9666 12.1061L66.6759 12.7561L58.9633 16.6238L58.2494 15.2061L87.7137 0.406714C88.4437 0.0444294 89.2807 0.0526549 90.0022 0.421426L118.703 15.2681Z" fill="#0D1D28"/>
<path d="M68.263 12.1059L66.6738 12.1104L66.7702 46.1507L68.3594 46.1462L68.263 12.1059Z" fill="#0D1D28"/>
<path d="M111.533 11.9838L109.943 11.9883L110.061 53.4767L111.65 53.4722L111.533 11.9838Z" fill="#0D1D28"/>
<path d="M85.0091 14.9084L77.0738 14.9309C75.972 14.934 75.0846 15.8265 75.0877 16.9283L75.1101 24.8636C75.1132 25.9655 76.0057 26.8529 77.1075 26.8498L85.0429 26.8273C86.1447 26.8242 87.0427 25.9317 87.0396 24.8299L87.0172 16.8945C87.014 15.7927 86.111 14.9053 85.0091 14.9084ZM85.4504 24.8344C85.4511 25.0569 85.2715 25.2375 85.0384 25.2381L77.103 25.2606C76.8806 25.2612 76.6999 25.0816 76.6993 24.8591L76.6769 16.9238C76.6762 16.7013 76.8558 16.5207 77.0783 16.5201L85.0136 16.4976C85.2467 16.497 85.4273 16.6765 85.428 16.899L85.4504 24.8344Z" fill="#0D1D28"/>
<path d="M100.054 14.8655L92.1187 14.8879C91.0169 14.891 90.1295 15.7835 90.1326 16.8853L90.1551 24.8207C90.1582 25.9225 91.0506 26.8099 92.1525 26.8068L100.088 26.7844C101.19 26.7812 102.077 25.8888 102.074 24.7869L102.051 16.8516C102.048 15.7498 101.156 14.8623 100.054 14.8655ZM100.485 24.7914C100.485 25.0139 100.306 25.1945 100.083 25.1952L92.148 25.2176C91.9255 25.2183 91.7449 25.0387 91.7442 24.8162L91.7218 16.8808C91.7211 16.6584 91.9008 16.4777 92.1232 16.4771L100.059 16.4546C100.281 16.454 100.462 16.6336 100.462 16.8561L100.485 24.7914Z" fill="#0D1D28"/>
<path d="M85.0521 29.8684L77.1168 29.8908C76.0149 29.894 75.1275 30.7864 75.1306 31.8883L75.1531 39.8342C75.1562 40.9254 76.0487 41.8235 77.1505 41.8203L85.0859 41.7979C86.1877 41.7948 87.0857 40.8917 87.0826 39.8004L87.0601 31.8545C87.057 30.7527 86.154 29.8653 85.0521 29.8684ZM85.4934 39.8049C85.4941 40.0274 85.3145 40.208 85.0814 40.2087L77.146 40.2312C76.9236 40.2318 76.7429 40.0522 76.7423 39.8297L76.7198 31.8838C76.7192 31.6613 76.8988 31.4807 77.1213 31.48L85.0566 31.4576C85.2897 31.4569 85.4703 31.6365 85.4709 31.859L85.4934 39.8049Z" fill="#0D1D28"/>
<path d="M100.097 29.8244L92.1617 29.8469C91.0599 29.85 90.1724 30.7425 90.1756 31.8443L90.1981 39.7903C90.2011 40.8815 91.0936 41.7795 92.1955 41.7764L100.131 41.7539C101.233 41.7508 102.12 40.8478 102.117 39.7565L102.094 31.8106C102.091 30.7087 101.199 29.8213 100.097 29.8244ZM100.528 39.761C100.528 39.9835 100.349 40.1641 100.126 40.1648L92.191 40.1872C91.9685 40.1878 91.7879 40.0082 91.7872 39.7858L91.7647 31.8398C91.7641 31.6173 91.9437 31.4367 92.1662 31.4361L100.102 31.4136C100.324 31.413 100.505 31.5926 100.505 31.8151L100.528 39.761Z" fill="#0D1D28"/>
<path d="M118.808 53.1237L118.813 54.7129L45.6148 54.9201C44.5554 54.9231 43.6996 55.7837 43.7026 56.8431L43.7451 71.8345L42.1559 71.839L42.1134 56.8476C42.1119 56.2967 42.2376 55.7878 42.4588 55.3316C42.9538 54.2813 43.9581 53.5157 45.1548 53.364C45.3031 53.3424 45.462 53.3313 45.6103 53.3309L118.808 53.1237Z" fill="#0D1D28"/>
<path d="M118.859 70.8268L38.6797 71.0537L38.6842 72.6429L118.864 72.4159L118.859 70.8268Z" fill="#0D1D28"/>
<path d="M118.79 45.9507L48.2091 46.1505C46.514 46.1553 45.1406 47.5365 45.1454 49.2316L45.1593 54.1263L46.7485 54.1218L46.7346 49.2271C46.7323 48.4113 47.3873 47.742 48.2136 47.7397L118.795 47.5399L118.79 45.9507Z" fill="#0D1D28"/>
<path d="M57.9896 46.9174L56.4004 46.9219L56.4207 54.0944L58.0099 54.0899L57.9896 46.9174Z" fill="#0D1D28"/>
<path d="M68.3607 46.8881L66.7715 46.8926L66.7918 54.0651L68.381 54.0606L68.3607 46.8881Z" fill="#0D1D28"/>
<path d="M79.0189 46.8578L77.4297 46.8623L77.45 54.0348L79.0392 54.0303L79.0189 46.8578Z" fill="#0D1D28"/>
<path d="M89.6361 46.8275L88.0469 46.832L88.0672 54.0046L89.6564 54.0001L89.6361 46.8275Z" fill="#0D1D28"/>
<path d="M100.378 46.7973L98.7891 46.8018L98.8094 53.9743L100.399 53.9698L100.378 46.7973Z" fill="#0D1D28"/>
<path d="M105.548 76.3835L105.553 77.9727C102.141 77.9823 100.49 78.485 98.7326 79.0197C96.9437 79.5651 95.0912 80.1212 91.436 80.1316C87.7809 80.1419 85.9359 79.5962 84.1545 79.0609C82.3943 78.5362 80.7295 78.0429 77.3075 78.0526C73.8854 78.0623 72.2341 78.5649 70.4875 79.0996C68.6985 79.645 66.846 80.2012 63.2015 80.2115C59.5569 80.2218 57.7013 79.6761 55.9093 79.1409C54.1597 78.6161 52.495 78.1229 49.0835 78.1325C45.672 78.1422 44.0101 78.6448 42.2635 79.1795C40.4745 79.7249 38.622 80.2811 34.9775 80.2914C31.333 80.3017 29.4774 79.756 27.6854 79.2208C25.9358 78.696 24.271 78.2028 20.8595 78.2124C17.4481 78.2221 15.7861 78.7247 14.0395 79.2594C12.2506 79.8048 10.3981 80.361 6.75355 80.3713C3.61756 80.3801 1.81531 79.9721 0.224834 79.521L0.220156 77.8682C1.87429 78.3509 3.5283 78.7912 6.74906 78.7821C10.1605 78.7724 11.8225 78.2698 13.5691 77.7351C15.358 77.2003 17.2105 76.6335 20.855 76.6232C24.4996 76.6129 26.3552 77.1692 28.1472 77.6938C29.8968 78.2186 31.5616 78.7119 34.973 78.7022C38.3845 78.6925 40.0464 78.1899 41.793 77.6552C43.582 77.1204 45.4345 76.5536 49.079 76.5433C52.7235 76.533 54.5792 77.0893 56.3712 77.6139C58.1208 78.1387 59.7855 78.632 63.197 78.6223C66.6084 78.6126 68.2704 78.11 70.017 77.5753C71.806 77.0405 73.6584 76.4738 77.303 76.4634C80.9475 76.4531 82.8137 77.0094 84.6057 77.534C86.3659 78.0588 88.0201 78.552 91.4315 78.5424C94.843 78.5327 96.5155 78.03 98.2727 77.4953C100.051 76.9606 101.904 76.3938 105.548 76.3835Z" fill="#0D1D28"/>
<path d="M118.881 78.4544L118.885 80.0436C115.749 79.9783 114.031 79.4746 112.377 78.9813C110.628 78.4566 108.963 77.9633 105.551 77.973L105.547 76.3838C109.191 76.3735 111.047 76.9297 112.839 77.4544C114.451 77.9372 115.988 78.3884 118.881 78.4544Z" fill="#0D1D28"/>
<path d="M42.9347 66.0518L42.9392 67.641C42.6531 67.6418 42.3883 67.6532 42.1446 67.6645C40.079 67.7657 38.9467 68.235 37.7615 68.7258C36.3434 69.3125 34.8725 69.9099 31.9801 69.9181C29.0878 69.9263 27.6135 69.3372 26.1922 68.7585C24.8557 68.2114 23.5935 67.6958 20.9978 67.7031C18.4021 67.7105 17.164 68.2331 15.8307 68.7878C14.4127 69.3745 12.9523 69.972 10.0494 69.9802C7.14645 69.9884 5.69331 69.3992 4.27199 68.8205C3.13708 68.3682 2.05517 67.9263 0.190165 67.8044L0.185667 66.2152C2.37913 66.3468 3.64133 66.8517 4.87171 67.3462C6.20819 67.8933 7.47038 68.3983 10.0449 68.391C12.6193 68.3837 13.8893 67.8716 15.2226 67.3169C16.6406 66.7302 18.101 66.1221 20.9933 66.114C23.8856 66.1058 25.3706 66.7055 26.7919 67.2841C28.1284 67.8313 29.3906 68.3363 31.9756 68.3289C34.5607 68.3216 35.82 67.8095 37.1534 67.2548C38.4338 66.7215 39.7566 66.1774 42.1401 66.0753C42.3944 66.064 42.6592 66.0526 42.9347 66.0518Z" fill="#0D1D28"/>
<path d="M12.0008 59.1252C11.4183 59.2011 10.7722 59.2453 10.0199 59.2474C9.46903 59.249 8.97102 59.2292 8.51533 59.1881C6.57605 59.0241 5.3881 58.5507 4.24257 58.0877C3.10763 57.6248 2.02572 57.1829 0.160748 57.0716L0.15625 55.4824C2.33909 55.6034 3.60129 56.1084 4.8317 56.6134C5.48928 56.8658 6.11514 57.1395 6.89968 57.328C7.53581 57.4851 8.27776 57.5996 9.1996 57.6393C9.96463 58.4212 10.9408 58.9375 12.0008 59.1252Z" fill="#0D1D28"/>
<path d="M42.905 55.3194L42.9095 56.9086C42.6234 56.9094 42.3586 56.9207 42.1149 56.932C40.0493 57.0332 38.9064 57.5026 37.7211 57.9827C36.3031 58.5695 34.8428 59.1775 31.9504 59.1857C31.336 59.1874 30.7956 59.1678 30.2975 59.1162C29.4391 59.0339 28.7288 58.8876 28.1032 58.7092C28.7169 58.4108 29.2666 57.9749 29.71 57.4439C30.2506 57.5271 30.8758 57.5783 31.6069 57.5869C31.7129 57.5972 31.8294 57.5968 31.9459 57.5965C34.531 57.5892 35.7903 57.0665 37.1131 56.5224C38.4676 55.9676 39.8539 55.3916 42.46 55.3313C42.6083 55.3202 42.7566 55.3198 42.905 55.3194Z" fill="#0D1D28"/>
<path d="M34.4416 52.4395C34.1646 51.9105 33.6128 51.6049 33.0091 51.6595L20.0016 52.6287L18.4127 52.7497L7.5237 53.554C6.86696 53.5982 6.31712 53.9812 6.04334 54.5752C5.76953 55.1587 5.83505 55.8472 6.20733 56.3653L6.8987 57.3274L7.33476 57.9195C7.67514 58.3953 8.07893 58.8179 8.51436 59.1875C9.76752 60.2434 11.369 60.8322 13.0429 60.8275L26.0001 60.7908C27.5893 60.7863 29.1238 60.178 30.2968 59.1153C30.5821 58.8602 30.8462 58.584 31.0784 58.2761L31.6062 57.5859L34.3191 54.0714C34.6779 53.5936 34.7291 52.9684 34.4416 52.4395ZM29.8149 57.3155C29.8149 57.3155 29.7516 57.4005 29.7093 57.443C29.2659 57.974 28.7162 58.4099 28.1025 58.7083C27.4466 59.028 26.7266 59.1995 25.9956 59.2016L13.0384 59.2383C12.6888 59.2393 12.3391 59.2085 11.9998 59.1247C10.9398 58.937 9.96366 58.4206 9.19863 57.6388C8.9862 57.4487 8.79486 57.2267 8.62466 56.9835L7.49723 55.4293C7.44404 55.3553 7.45446 55.2917 7.47553 55.2492C7.49657 55.1962 7.54939 55.1431 7.63412 55.1322L32.9395 53.2595L29.8149 57.3155Z" fill="#0D1D28"/>
<path d="M29.7668 47.2827L20.0764 29.9031C19.8741 29.5328 19.4604 29.3539 19.0475 29.4504C18.7299 29.5361 18.4975 29.7698 18.4029 30.0561L8.04099 48.6473C7.77753 49.146 7.80043 49.7498 8.10902 50.2257C8.41762 50.7016 8.96931 50.9755 9.52008 50.921L18.4072 50.2919L18.416 53.375L20.0051 53.3705L19.9961 50.1815L28.5125 49.5853C29.0527 49.5414 29.5181 49.2434 29.771 48.7765C30.0239 48.299 30.0224 47.7481 29.7668 47.2827ZM9.44163 49.4062L18.3594 33.3936L18.4028 48.7451L9.44163 49.4062ZM19.9917 48.6241L19.9472 32.9123L28.4021 47.9964L19.9917 48.6241Z" fill="#0D1D28"/>
</g>
<defs>
<clipPath id="clip0_1432_1467">
<rect width="118.66" height="80" fill="white" transform="translate(0 0.390625) rotate(-0.162178)"/>
</clipPath>
</defs>
</svg>
