<svg width="81" height="81" viewBox="0 0 81 81" fill="none" xmlns="http://www.w3.org/2000/svg">
<g clip-path="url(#clip0_1432_1547)">
<path d="M69.7208 38.0691L11.2526 38.2346C9.55492 38.2394 8.1697 36.862 8.1649 35.1644L8.07512 3.4471C8.07032 1.74947 9.44771 0.364254 11.1453 0.359449L69.6135 0.193952C71.3112 0.189147 72.6964 1.56654 72.7012 3.26418L72.791 34.9815C72.7958 36.6791 71.4184 38.0643 69.7208 38.0691ZM11.1498 1.9411C10.3168 1.94345 9.65444 2.62017 9.65677 3.44263L9.74654 35.1599C9.7489 35.9929 10.4256 36.6553 11.2481 36.653L69.7163 36.4875C70.5493 36.4851 71.2117 35.8084 71.2093 34.9859L71.1196 3.26865C71.1172 2.43565 70.4405 1.77327 69.618 1.7756L11.1498 1.9411Z" fill="#0D1D28"/>
<path d="M65.2487 34.2225L56.9082 34.2461C55.5901 34.2498 54.5222 33.1879 54.5184 31.8698L54.5126 29.8137C54.5089 28.4956 55.5708 27.4276 56.8889 27.4239L65.2294 27.4003C66.5475 27.3966 67.6155 28.4585 67.6192 29.7766L67.625 31.8327C67.6287 33.1508 66.5668 34.2187 65.2487 34.2225ZM56.8934 29.0161C56.4505 29.0174 56.093 29.3769 56.0943 29.8197L56.1001 31.8759C56.1014 32.3187 56.4609 32.6762 56.9037 32.675L65.2443 32.6514C65.6871 32.6501 66.0446 32.2906 66.0434 31.8477L66.0376 29.7916C66.0363 29.3487 65.6768 28.9912 65.2339 28.9925L56.8934 29.0161Z" fill="#0D1D28"/>
<path d="M25.9194 56.8985L12.2329 56.9372C10.0186 56.9435 8.19989 55.1455 8.19359 52.9207L8.17742 47.2057C8.17115 44.9914 9.96909 43.1726 12.1939 43.1663L25.8805 43.1276C28.0948 43.1213 29.9135 44.9193 29.9198 47.1441L29.936 52.8591C29.9422 55.0734 28.1443 56.8922 25.9194 56.8985ZM12.209 44.7585C10.8593 44.7623 9.76582 45.862 9.76964 47.2117L9.78581 52.9267C9.78963 54.2764 10.8893 55.3699 12.239 55.3661L25.9255 55.3273C27.2752 55.3235 28.3687 54.2238 28.3649 52.8741L28.3487 47.1591C28.3449 45.8094 27.2452 44.7159 25.8955 44.7198L12.209 44.7585Z" fill="#0D1D28"/>
<path d="M28.5433 70.884L9.70064 70.9374C8.59349 70.9405 7.69469 70.0468 7.69155 68.9396L7.68341 66.061C7.68027 64.9539 8.574 64.0551 9.68115 64.0519L28.5238 63.9986C29.631 63.9955 30.5298 64.8892 30.5329 65.9964L30.5411 68.875C30.5442 69.9821 29.6505 70.8809 28.5433 70.884ZM9.68563 65.6336C9.45366 65.6342 9.26439 65.8246 9.26505 66.0566L9.2732 68.9352C9.27386 69.1671 9.46419 69.3564 9.69617 69.3557L28.5388 69.3024C28.7708 69.3017 28.9601 69.1114 28.9594 68.8794L28.9513 66.0008C28.9506 65.7689 28.7603 65.5796 28.5283 65.5803L9.68563 65.6336Z" fill="#0D1D28"/>
<path d="M8.99705 53.3719L2.797 53.3895C1.34189 53.3936 0.147006 52.2054 0.142858 50.7398L0.138381 49.1581C0.134232 47.6925 1.31182 46.4976 2.77748 46.4935L8.97754 46.4759L8.98201 48.0576L2.78196 48.0751C2.19148 48.0768 1.71836 48.5632 1.72003 49.1537L1.7245 50.7353C1.72618 51.3258 2.20204 51.8095 2.79252 51.8078L8.99258 51.7903L8.99705 53.3719Z" fill="#0D1D28"/>
<path d="M35.3465 53.2974L29.1465 53.3149L29.142 51.7333L35.3421 51.7157C35.9325 51.7141 36.4057 51.2277 36.404 50.6372L36.3995 49.0555C36.3978 48.4651 35.922 47.9814 35.3315 47.983L29.1314 48.0006L29.127 46.4189L35.327 46.4014C36.7821 46.3973 37.977 47.5854 37.9811 49.0511L37.9856 50.6327C37.9898 52.0984 36.8122 53.2932 35.3465 53.2974Z" fill="#0D1D28"/>
<path d="M4.75547 52.5932L3.17383 52.5977L3.23498 74.203L4.81663 74.1985L4.75547 52.5932Z" fill="#0D1D28"/>
<path d="M35.3141 52.5072L33.7324 52.5117L33.7936 74.117L35.3752 74.1125L35.3141 52.5072Z" fill="#0D1D28"/>
<path d="M27.6539 70.0961L26.0723 70.1006L26.1012 80.318L27.6828 80.3135L27.6539 70.0961Z" fill="#0D1D28"/>
<path d="M14.9215 56.1391L13.3398 56.1436L13.3645 64.8426L14.9461 64.8381L14.9215 56.1391Z" fill="#0D1D28"/>
<path d="M25.1168 56.1098L23.5352 56.1143L23.5598 64.8133L25.1414 64.8088L25.1168 56.1098Z" fill="#0D1D28"/>
<path d="M12.2379 70.0229L10.6562 70.0273L10.6852 80.2448L12.2668 80.2403L12.2379 70.0229Z" fill="#0D1D28"/>
<path d="M68.8237 56.5557L55.1372 56.5944C52.9229 56.6007 51.1042 54.8028 51.0979 52.5779L51.0817 46.8629C51.0754 44.6486 52.8734 42.8299 55.0982 42.8236L68.7848 42.7848C70.9991 42.7786 72.8178 44.5765 72.8241 46.8013L72.8403 52.5164C72.8465 54.7307 71.0486 56.5494 68.8237 56.5557ZM55.1133 44.4157C53.7636 44.4195 52.6701 45.5193 52.6739 46.8689L52.6901 52.5839C52.6939 53.9336 53.7936 55.0271 55.1433 55.0233L68.8298 54.9846C70.1795 54.9807 71.273 53.881 71.2692 52.5314L71.253 46.8163C71.2492 45.4667 70.1495 44.3732 68.7998 44.377L55.1133 44.4157Z" fill="#0D1D28"/>
<path d="M71.4457 70.551L52.603 70.6044C51.4958 70.6075 50.597 69.7138 50.5939 68.6066L50.5857 65.728C50.5826 64.6209 51.4763 63.7221 52.5835 63.7189L71.4262 63.6656C72.5333 63.6625 73.4321 64.5562 73.4353 65.6633L73.4434 68.5419C73.4466 69.6491 72.5528 70.5479 71.4457 70.551ZM52.588 65.3006C52.356 65.3012 52.1667 65.4916 52.1674 65.7235L52.1755 68.6021C52.1762 68.8341 52.3665 69.0234 52.5985 69.0227L71.4412 68.9694C71.6732 68.9687 71.8624 68.7784 71.8618 68.5464L71.8536 65.6678C71.853 65.4359 71.6626 65.2466 71.4307 65.2472L52.588 65.3006Z" fill="#0D1D28"/>
<path d="M51.9111 53.0389L45.7111 53.0565C44.2559 53.0606 43.0611 51.8724 43.0569 50.4068L43.0524 48.8251C43.0483 47.3595 44.2259 46.1646 45.6915 46.1605L51.8916 46.1429L51.8961 47.7246L45.696 47.7421C45.1055 47.7438 44.6324 48.2302 44.6341 48.8207L44.6386 50.4023C44.6402 50.9928 45.1161 51.4765 45.7066 51.4748L51.9066 51.4573L51.9111 53.0389Z" fill="#0D1D28"/>
<path d="M78.2625 52.9644L72.0625 52.9819L72.058 51.4003L78.2581 51.3827C78.8486 51.381 79.3217 50.8947 79.32 50.3042L79.3155 48.7225C79.3138 48.1321 78.838 47.6484 78.2475 47.65L72.0474 47.6676L72.043 46.0859L78.243 46.0684C79.6981 46.0643 80.893 47.2524 80.8972 48.7181L80.9016 50.2997C80.9058 51.7654 79.7282 52.9602 78.2625 52.9644Z" fill="#0D1D28"/>
<path d="M47.6598 52.2494L46.0781 52.2539L46.1393 73.8592L47.7209 73.8547L47.6598 52.2494Z" fill="#0D1D28"/>
<path d="M78.2164 52.1625L76.6348 52.167L76.6959 73.7723L78.2776 73.7678L78.2164 52.1625Z" fill="#0D1D28"/>
<path d="M70.5582 69.7631L68.9766 69.7676L69.0055 79.985L70.5871 79.9805L70.5582 69.7631Z" fill="#0D1D28"/>
<path d="M57.8258 55.7953L56.2441 55.7998L56.2688 64.4989L57.8504 64.4944L57.8258 55.7953Z" fill="#0D1D28"/>
<path d="M68.0309 55.767L66.4492 55.7715L66.4738 64.4705L68.0555 64.4661L68.0309 55.767Z" fill="#0D1D28"/>
<path d="M55.1441 69.6801L53.5625 69.6846L53.5914 79.902L55.1731 79.8975L55.1441 69.6801Z" fill="#0D1D28"/>
<path d="M71.9925 32.6213L8.9375 32.7998L8.94198 34.3814L71.997 34.203L71.9925 32.6213Z" fill="#0D1D28"/>
</g>
<defs>
<clipPath id="clip0_1432_1547">
<rect width="80.7486" height="80" fill="white" transform="translate(0 0.390625) rotate(-0.162178)"/>
</clipPath>
</defs>
</svg>
