<svg width="79" height="81" viewBox="0 0 79 81" fill="none" xmlns="http://www.w3.org/2000/svg">
<g clip-path="url(#clip0_1432_1493)">
<path d="M40.0022 60.9872C29.1361 61.018 20.2714 52.0869 20.2402 41.0723L21.832 41.0678C21.8606 51.2017 30.0123 59.4238 39.9977 59.3955C49.9831 59.3672 58.0881 51.0991 58.0594 40.9652L59.6511 40.9607C59.6823 51.9754 50.8683 60.9565 40.0022 60.9872Z" fill="#0D1D28"/>
<path d="M64.0691 80.2111L15.7552 80.3479C14.0043 80.3528 12.5256 79.0518 12.3191 77.3121L7.21011 34.3605C7.11238 33.5755 7.36486 32.8001 7.88314 32.2044C8.40145 31.6193 9.1539 31.2776 9.93915 31.2754L69.6816 31.1063C70.5199 31.1039 71.3274 31.4624 71.8809 32.0869C72.4345 32.7115 72.7022 33.549 72.609 34.3876L67.6468 77.0282C67.4397 78.8433 65.8943 80.2166 64.0692 80.2217L64.0691 80.2111ZM9.94365 32.8671C9.60409 32.8681 9.29675 33.0069 9.07463 33.2622C8.85251 33.5175 8.74729 33.8362 8.79067 34.165L13.8997 77.1166C14.0084 78.0501 14.8063 78.7588 15.7507 78.7562L64.0646 78.6194C65.0833 78.6165 65.9407 77.8501 66.0652 76.8416L71.0274 34.2011C71.0687 33.8083 70.951 33.4372 70.6955 33.1514C70.44 32.8657 70.0787 32.6969 69.6861 32.698L9.94365 32.8671Z" fill="#0D1D28"/>
<path d="M8.7106 31.8731C8.49741 31.5341 3.54011 23.4303 5.04526 19.0859C5.44519 17.9175 6.24938 17.1088 7.43663 16.6704C9.09031 16.0608 10.8416 16.2044 12.6375 17.1119C17.1964 19.4229 20.8655 26.0342 22.3445 31.2084L20.8177 31.6478C19.3816 26.6432 15.8731 20.5303 11.92 18.5359C10.5385 17.8395 9.22233 17.7158 7.99266 18.165C7.27184 18.4323 6.79564 18.9006 6.55359 19.6122C5.51159 22.6289 8.74461 28.8911 10.0772 31.0521L8.72127 31.8943L8.7106 31.8731Z" fill="#0D1D28"/>
<path d="M7.16243 17.6691C6.88654 17.6699 6.61037 17.5752 6.37641 17.3955L0.282652 12.68L1.25536 11.425L6.81737 15.7282L6.20043 3.96176L7.79194 3.88297L8.44263 16.3285C8.4653 16.8377 8.20131 17.2948 7.75629 17.5295C7.56555 17.6255 7.36408 17.6792 7.16246 17.6797L7.16243 17.6691Z" fill="#0D1D28"/>
<path d="M14.6908 19.4727L13.4147 18.5213C13.4147 18.5213 15.4232 15.8203 17.7393 13.0229C18.4584 12.1507 18.8479 11.0672 18.8448 9.95302L18.8239 2.58868C18.8204 1.34714 19.8257 0.3362 21.0672 0.332686L30.7767 0.305203C32.1455 0.301328 33.2629 1.41238 33.2668 2.78125L33.2872 9.98643C33.2891 10.6868 33.5776 11.3651 34.0671 11.8518L36.5262 14.6251L35.3407 15.679L32.9135 12.9375C32.1473 12.1756 31.6986 11.1157 31.6954 9.98032L31.6751 2.78576C31.6737 2.29763 31.2693 1.89554 30.7812 1.89692L21.0717 1.9244C20.7109 1.92542 20.4146 2.22339 20.4156 2.58417L20.4365 9.95913C20.4407 11.4447 19.9143 12.9 18.9625 14.0487C16.6782 16.8142 14.7119 19.4514 14.6908 19.4727Z" fill="#0D1D28"/>
<path d="M31.9865 6.97661L20.2715 7.00977L20.276 8.60148L31.991 8.56832L31.9865 6.97661Z" fill="#0D1D28"/>
<path d="M56.6974 17.3122L55.2988 18.0723L60.1429 26.9856L61.5414 26.2256L56.6974 17.3122Z" fill="#0D1D28"/>
<path d="M61.4905 10.9082L60.0918 11.668L64.9343 20.5822L66.3329 19.8224L61.4905 10.9082Z" fill="#0D1D28"/>
<path d="M66.9807 4.03219L65.582 4.79199L70.4245 13.7062L71.8232 12.9464L66.9807 4.03219Z" fill="#0D1D28"/>
<path d="M28.5525 31.838C28.4673 31.711 26.5489 28.7876 27.7198 26.3118C28.3949 24.8773 29.9097 23.9605 32.2325 23.5506C31.7192 22.1726 31.086 19.6488 32.1409 17.4387C32.9743 15.696 34.6582 14.524 37.1503 13.9545C37.7935 12.4883 40.2203 7.62135 44.1454 7.207C46.8081 6.92356 49.4768 8.74119 52.0981 12.5964C53.3186 12.6672 56.6837 13.0927 57.8691 15.7529L56.4172 16.4043C55.4347 14.1999 51.8373 14.1782 51.6887 14.1786L51.243 14.1799L50.998 13.8198C48.664 10.2609 46.3777 8.58018 44.3091 8.78765C40.7446 9.15854 38.4794 14.8846 38.4583 14.9377L38.3003 15.3414L37.8654 15.4275C35.6701 15.8582 34.2189 16.7643 33.5648 18.1244C32.3938 20.5683 34.0478 23.8108 34.0691 23.8426L34.6133 24.8916L33.4357 25.0116C31.1018 25.2411 29.6606 25.9137 29.1331 27.0082C28.3525 28.6552 29.834 30.9431 29.8553 30.9642L28.5313 31.8487L28.5525 31.838Z" fill="#0D1D28"/>
<path d="M70.385 32.2819L68.9821 31.5218C72.5291 24.9963 80.3626 7.03 74.0992 2.35743C73.3973 1.83946 72.5905 1.69318 71.6361 1.91872C63.1631 3.90584 49.1489 31.4294 49.0011 31.7057L47.5771 30.9881C48.1681 29.8298 62.0768 2.52941 71.2709 0.370473C72.6919 0.0374929 73.9659 0.277952 75.0506 1.08136C83.696 7.52992 70.9339 31.2722 70.385 32.2819Z" fill="#0D1D28"/>
</g>
<defs>
<clipPath id="clip0_1432_1493">
<rect width="77.7716" height="80" fill="white" transform="translate(0.248047 0.391602) rotate(-0.162178)"/>
</clipPath>
</defs>
</svg>
