<svg width="85" height="80" viewBox="0 0 85 80" fill="none" xmlns="http://www.w3.org/2000/svg">
<g clip-path="url(#clip0_1432_1695)">
<path d="M61.9815 78.0134L61.2539 76.6153C74.9303 69.5719 83.4187 55.6744 83.4187 40.3367C83.4187 28.9096 78.5576 17.9241 70.0692 10.2079L71.1342 9.04102C79.9389 17.0515 84.9898 28.4681 84.9898 40.3367C84.9898 56.2631 76.164 70.6967 61.9709 78.0134H61.9815Z" fill="#0D1D28"/>
<path d="M13.8556 71.643C5.05086 63.6325 0 52.2159 0 40.3368C0 24.3052 8.91018 9.82956 23.2614 2.56543L23.9784 3.9741C10.165 10.9649 1.58169 24.9045 1.58169 40.3368C1.58169 51.7744 6.44275 62.7599 14.9312 70.4761L13.8661 71.643H13.8556Z" fill="#0D1D28"/>
<path d="M43.5067 36.6884C42.5261 36.6884 41.5243 36.1838 40.9971 35.3848C37.781 30.5176 33.9744 20.9197 36.6949 14.444C38.0341 11.2482 40.7546 9.22979 44.7826 8.43084C45.1622 8.35725 47.4188 8.29418 47.8405 8.36776C50.2447 8.77775 54.568 10.7856 56.582 14.6332C58.1637 17.6503 58.0583 21.1089 56.2657 24.9039C54.8632 27.8894 52.7332 28.6463 50.8668 29.3191C48.6208 30.1286 46.6701 30.8329 45.6156 35.1746C45.4258 35.942 44.8248 36.4887 43.9918 36.6358C43.8336 36.6674 43.6754 36.6779 43.5173 36.6779L43.5067 36.6884ZM47.0919 9.90259C46.4276 9.90259 45.3098 9.93412 45.0779 9.97617C41.6087 10.67 39.2678 12.373 38.1501 15.0537C35.6932 20.9197 39.4049 30.1076 42.3152 34.5228C42.5999 34.9643 43.2642 35.1746 43.7071 35.0905C44.0129 35.0379 44.0445 34.8908 44.0656 34.8172C45.3204 29.645 47.9776 28.6884 50.3185 27.8474C52.1322 27.1956 53.7033 26.6279 54.8316 24.2416C56.4028 20.9197 56.5187 17.9341 55.1796 15.3691C53.4292 12.0261 49.6753 10.281 47.5769 9.92361C47.5031 9.92361 47.3239 9.9131 47.1024 9.9131L47.0919 9.90259Z" fill="#0D1D28"/>
<path d="M35.9263 71.369C34.4395 71.369 33.1214 71.1482 32.183 70.8328C31.7823 70.6962 29.8104 69.5819 29.5152 69.3506C26.3413 66.754 24.8861 63.6949 25.213 60.2468C25.8668 53.2665 33.7541 46.57 38.8893 43.7842C39.87 43.2481 41.2197 43.3742 42.116 44.0681C42.7803 44.5832 43.065 45.3506 42.8646 46.118C41.7469 50.4491 43.1283 51.984 44.731 53.7501C46.0702 55.2218 47.5781 56.8933 47.4094 60.1837C47.1985 64.3782 45.659 67.4794 42.8436 69.4031C40.6925 70.8749 38.1301 71.369 35.9158 71.369H35.9263ZM40.239 45.0352C40.0281 45.0352 39.8278 45.0773 39.6485 45.1719C34.9878 47.7054 27.3852 54.0759 26.7947 60.3939C26.5205 63.2849 27.7753 65.8815 30.5275 68.1311C30.77 68.3098 32.4255 69.2349 32.6997 69.3401C34.7031 70.0024 38.8472 70.2231 41.9684 68.0996C44.362 66.4702 45.6695 63.779 45.8488 60.1101C45.9858 57.4715 44.8681 56.2415 43.5711 54.8118C41.9051 52.9721 40.0071 50.8801 41.3462 45.729C41.3673 45.6554 41.3989 45.5083 41.1564 45.319C40.935 45.1508 40.587 45.0352 40.2496 45.0352H40.239Z" fill="#0D1D28"/>
<path d="M22.2285 45.919C20.4254 45.919 18.6855 45.6456 17.1355 44.9939C13.9299 43.6588 11.9054 40.9466 11.104 36.9308C11.0302 36.5629 10.9669 34.3027 11.0407 33.8822C11.452 31.4853 13.466 27.1752 17.3253 25.1673C20.3516 23.5905 23.8208 23.6956 27.6274 25.4827C30.622 26.8809 31.3812 29.0044 32.0666 30.8651C32.8786 33.1148 33.5851 35.0491 37.94 36.1003C38.7097 36.2895 39.2581 36.8888 39.4057 37.7192C39.5955 38.8336 39.0683 40.0845 38.1403 40.6943C34.4286 43.1332 27.9648 45.9085 22.2285 45.9085V45.919ZM21.8595 25.6509C20.4992 25.6509 19.2339 25.9558 18.0423 26.576C14.6891 28.3211 12.9387 32.0635 12.5802 34.1555C12.5486 34.4393 12.5802 36.3316 12.6329 36.6364C13.3289 40.0951 15.0371 42.4288 17.726 43.5431C23.6099 45.9926 32.8259 42.2922 37.2546 39.3907C37.6975 39.1069 37.9083 38.4446 37.824 38.0031C37.7713 37.6982 37.6236 37.6667 37.5498 37.6457C32.3619 36.3947 31.4023 33.7455 30.5588 31.4117C29.905 29.6036 29.3356 28.0372 26.942 26.9124C25.1388 26.0714 23.4412 25.6509 21.8489 25.6509H21.8595Z" fill="#0D1D28"/>
<path d="M63.9537 56.4619C63.648 56.4619 63.3316 56.4514 63.0153 56.4199C56.0137 55.7681 49.2968 47.9048 46.5024 42.7852C45.9752 41.818 46.0912 40.4619 46.7871 39.5684C47.3038 38.9061 48.0841 38.6222 48.8433 38.822C53.1877 39.9363 54.7272 38.5592 56.4987 36.9613C57.975 35.6262 59.6621 34.1334 62.952 34.2806C67.1593 34.4908 70.2594 36.0257 72.1996 38.8325C74.6565 42.4172 74.414 47.1584 73.6442 49.4711C73.5071 49.8706 72.3894 51.8364 72.1574 52.1308C69.7955 55.0112 67.0433 56.4619 63.9643 56.4619H63.9537ZM47.8838 42.0283C50.425 46.6748 56.8151 54.2543 63.1629 54.8535C66.0627 55.1163 68.6672 53.8759 70.9237 51.1321C71.103 50.8903 72.0309 49.2398 72.1469 48.9665C72.8112 46.9586 73.0326 42.8377 70.9026 39.726C69.2682 37.3397 66.5688 36.0362 62.8887 35.8575C60.242 35.7208 59.0083 36.8351 57.5743 38.1282C55.729 39.7891 53.6306 41.6814 48.4637 40.3463C48.3899 40.3253 48.2423 40.2937 48.0525 40.5355C47.7783 40.8824 47.6518 41.5657 47.9049 42.0283H47.8838Z" fill="#0D1D28"/>
<path d="M42.7274 45.3092C41.8417 45.3092 40.9454 45.0779 40.1229 44.5943C38.9419 43.9005 38.1089 42.7862 37.7714 41.4721C37.434 40.1475 37.6344 38.7809 38.3303 37.6035C39.0263 36.4366 40.144 35.5956 41.4621 35.2592C42.7907 34.9228 44.1615 35.1226 45.3425 35.8164C46.5235 36.5102 47.3565 37.6245 47.6939 38.9386C48.0313 40.2632 47.831 41.6298 47.135 42.8072C46.1755 44.4156 44.4778 45.3092 42.7274 45.3092ZM42.7379 36.6889C42.4427 36.6889 42.1475 36.7205 41.8627 36.8046C40.9454 37.0358 40.1756 37.614 39.7011 38.4235C39.2161 39.233 39.079 40.1791 39.311 41.0937C39.5429 42.0083 40.1229 42.7757 40.9348 43.2487C42.6114 44.2474 44.7836 43.6903 45.7748 42.0188C46.2598 41.2093 46.3969 40.2632 46.1649 39.3486C45.933 38.434 45.353 37.6666 44.5411 37.1935C43.9928 36.8676 43.3706 36.6994 42.7379 36.6994V36.6889Z" fill="#0D1D28"/>
<path d="M22.0494 11.5217L20.5415 11.0381L22.8508 3.84757L15.5117 1.50329L15.9968 0L24.8437 2.82786L22.0494 11.5217Z" fill="#0D1D28"/>
<path d="M69.7312 80.0001L60.6523 78.0027L62.6242 69.0986L64.1742 69.435L62.5398 76.8043L70.0687 78.4653L69.7312 80.0001Z" fill="#0D1D28"/>
</g>
<defs>
<clipPath id="clip0_1432_1695">
<rect width="85" height="80" fill="white"/>
</clipPath>
</defs>
</svg>
