<svg width="80" height="117" viewBox="0 0 80 117" fill="none" xmlns="http://www.w3.org/2000/svg">
<rect width="80" height="117" rx="40" fill="#195673"/>
<g clip-path="url(#clip0_2042_458)">
<path d="M40.1771 106.85C23.4624 106.85 9.86328 93.2514 9.86328 76.5366V40.3138C9.86328 23.5991 23.4624 10 40.1771 10C56.8919 10 70.491 23.5991 70.491 40.3138V76.5423C70.491 93.257 56.8919 106.856 40.1771 106.856V106.85ZM40.1771 12.2618C24.7064 12.2618 12.1251 24.8431 12.1251 40.3138V76.5423C12.1251 92.0074 24.7064 104.594 40.1771 104.594C55.6422 104.594 68.2292 92.013 68.2292 76.5423V40.3138C68.2292 24.8487 55.6479 12.2618 40.1771 12.2618Z" fill="#F5F1E5"/>
<path d="M37.8984 34.1675C39.3459 33.3081 41.138 33.3193 42.5742 34.1899L62.7949 46.4546L61.625 48.3882H61.6191L41.3984 36.1235C40.6747 35.6882 39.7755 35.6831 39.0518 36.1128L24.3164 44.855V63.6255C25.4854 62.5308 27.2588 61.525 29.9482 60.9751C33.454 60.257 36.96 61.0428 41.3252 63.5308C44.9667 65.606 48.2352 66.1997 51.0342 65.2837C53.6571 64.4319 55.3794 62.3815 56.123 60.7437V60.7319H58.3848V83.0845H56.123V73.4517C55.047 74.7498 53.5742 76.0101 51.6465 76.8081C48.0503 78.2952 43.9452 77.7745 39.4443 75.2583C35.1132 72.8326 32.7493 71.6003 30.4141 72.1655C26.2494 73.1797 24.7409 76.5204 24.3164 77.7632V83.0112H22.0547V46.1968L18.7236 48.1733L17.5703 46.228L37.8984 34.1675ZM40.0645 70.3276C36.1742 67.998 33.29 67.2581 30.4062 67.8462C24.3707 69.0816 24.3225 72.8882 24.3223 72.9458H24.3164V73.3198C25.5177 71.9347 27.2935 70.5969 29.877 69.9663C33.1847 69.1579 36.2715 70.8881 40.5518 73.2798C44.4138 75.4398 47.8579 75.9254 50.7812 74.7153C54.0285 73.3728 55.6376 70.3974 56.0898 69.0874C55.1059 70.1322 53.8438 71.0915 52.3633 71.7534C49.7735 72.9126 45.538 73.6073 40.0645 70.3276ZM40.2109 65.4927C36.3096 63.2707 33.3804 62.5812 30.4062 63.1919C24.5269 64.3953 24.3288 68.0387 24.3223 68.2798C25.4913 67.1873 27.2633 66.1843 29.9482 65.6353C33.4314 64.9228 36.8075 65.7476 41.2236 68.3882C44.8934 70.5878 48.4276 71.0347 51.4414 69.689C54.1684 68.4689 55.8199 66.0842 56.123 64.7827V64.6528C55.0071 65.808 53.5419 66.8441 51.7412 67.4321C48.3146 68.5517 44.4349 67.8958 40.2109 65.4927Z" fill="#F5F1E5"/>
</g>
<defs>
<clipPath id="clip0_2042_458">
<rect width="61.6342" height="96.8505" fill="white" transform="translate(9.29688 10)"/>
</clipPath>
</defs>
</svg>
