<svg width="119" height="81" viewBox="0 0 119 81" fill="none" xmlns="http://www.w3.org/2000/svg">
<g clip-path="url(#clip0_1432_1507)">
<path d="M84.7332 34.1076C77.8341 34.1271 72.1976 28.5329 72.178 21.6233C72.1585 14.7136 77.7527 9.08764 84.6623 9.06808C91.572 9.04852 97.198 14.6428 97.2175 21.5524C97.2371 28.462 91.6429 34.088 84.7332 34.1076ZM84.6668 10.6529C78.6341 10.6699 73.7457 15.5861 73.7628 21.6188C73.7799 27.6515 78.696 32.5399 84.7287 32.5228C90.7615 32.5057 95.6498 27.5896 95.6328 21.5569C95.6157 15.5242 90.6996 10.6358 84.6668 10.6529Z" fill="#0D1D28"/>
<path d="M85.534 36.7787L83.9492 36.7832L83.9687 43.6717L85.5535 43.6672L85.534 36.7787Z" fill="#0D1D28"/>
<path d="M85.4305 0.148835L83.8457 0.15332L83.8652 7.04183L85.45 7.03734L85.4305 0.148835Z" fill="#0D1D28"/>
<path d="M68.5545 20.8418L61.666 20.8613L61.6705 22.4461L68.559 22.4266L68.5545 20.8418Z" fill="#0D1D28"/>
<path d="M106.873 20.7325L99.9844 20.752L99.9889 22.3367L106.877 22.3172L106.873 20.7325Z" fill="#0D1D28"/>
<path d="M100.158 6.82233L95.3008 11.707L96.4246 12.8245L101.282 7.93977L100.158 6.82233Z" fill="#0D1D28"/>
<path d="M72.904 32.2257L68.0469 37.1104L69.1707 38.2278L74.0278 33.3431L72.904 32.2257Z" fill="#0D1D28"/>
<path d="M69.0764 5.29419L67.959 6.41797L72.8437 11.2751L73.9611 10.1513L69.0764 5.29419Z" fill="#0D1D28"/>
<path d="M96.4924 31.9456L95.375 33.0693L100.26 37.9265L101.377 36.8027L96.4924 31.9456Z" fill="#0D1D28"/>
<path d="M106.66 61.3046C103.554 61.3134 101.978 60.7579 100.455 60.2128C99.0062 59.6992 97.6313 59.2171 94.821 59.225C92.0107 59.233 90.6386 59.7229 89.1926 60.2447C87.6727 60.7878 86.1001 61.3628 82.994 61.3716C79.8878 61.3804 78.312 60.8249 76.789 60.2798C75.3402 59.7662 73.9653 59.2841 71.155 59.292C68.3446 59.3 66.9725 59.7899 65.5266 60.3117C64.0067 60.8548 62.4341 61.4298 59.3279 61.4386C56.2218 61.4473 54.646 60.8918 53.123 60.3468C51.6741 59.8332 50.2993 59.3511 47.4889 59.359C44.6786 59.367 43.3065 59.8568 41.8605 60.3786C40.3406 60.9218 38.768 61.4967 35.6619 61.5055C32.5557 61.5143 30.9799 60.9588 29.457 60.4138C28.0081 59.9002 26.6332 59.418 23.8229 59.426C21.0125 59.4339 19.6404 59.9238 18.1945 60.4456C16.6746 60.9888 15.102 61.5637 11.9958 61.5725C8.88966 61.5813 7.31387 61.0258 5.79092 60.4807C4.34202 59.9671 2.96717 59.485 0.15683 59.493L0.152344 57.9082C3.25851 57.8994 4.83431 58.4549 6.35726 59C7.80615 59.5136 9.181 59.9957 11.9913 59.9877C14.8017 59.9798 16.1738 59.4899 17.6198 58.9681C19.1396 58.425 20.7122 57.85 23.8184 57.8412C26.9246 57.8324 28.5004 58.3879 30.0233 58.933C31.4722 59.4466 32.847 59.9287 35.6574 59.9208C38.4677 59.9128 39.8398 59.4229 41.2858 58.9011C42.8057 58.358 44.3783 57.783 47.4844 57.7742C50.5906 57.7654 52.1664 58.3209 53.6893 58.866C55.1382 59.3796 56.5131 59.8617 59.3234 59.8538C62.1338 59.8458 63.5059 59.3559 64.9518 58.8341C66.4717 58.291 68.0443 57.716 71.1505 57.7072C74.2566 57.6984 75.8324 58.254 77.3554 58.799C78.8043 59.3126 80.1791 59.7947 82.9895 59.7868C85.7998 59.7788 87.1719 59.2889 88.6179 58.7672C90.1378 58.224 91.7104 57.649 94.8165 57.6403C97.9227 57.6315 99.4985 58.187 101.021 58.732C102.47 59.2456 103.845 59.7278 106.656 59.7198C109.466 59.7118 110.838 59.222 112.284 58.7002C113.804 58.157 115.376 57.5821 118.483 57.5733L118.487 59.158C115.677 59.166 114.305 59.6559 112.859 60.1777C111.339 60.7208 109.766 61.2958 106.66 61.3046Z" fill="#0D1D28"/>
<path d="M106.685 70.1786C103.579 70.1874 102.003 69.6319 100.48 69.0868C99.0316 68.5732 97.6567 68.0911 94.8464 68.0991C92.036 68.107 90.664 68.5969 89.218 69.1187C87.6981 69.6618 86.1255 70.2368 83.0194 70.2456C79.9132 70.2544 78.3374 69.6989 76.8144 69.1538C75.3655 68.6402 73.9907 68.1581 71.1804 68.166C68.37 68.174 66.9979 68.6639 65.5519 69.1857C64.0321 69.7288 62.4595 70.3038 59.3533 70.3126C56.2471 70.3214 54.6713 69.7659 53.1484 69.2208C51.6995 68.7072 50.3247 68.2251 47.5143 68.233C44.704 68.241 43.3319 68.7309 41.8859 69.2527C40.366 69.7958 38.7934 70.3708 35.6873 70.3796C32.5811 70.3884 31.0053 69.8329 29.4824 69.2878C28.0335 68.7742 26.6586 68.2921 23.8483 68.3C21.0379 68.308 19.6658 68.7979 18.2199 69.3197C16.7 69.8628 15.1274 70.4378 12.0212 70.4465C8.91506 70.4553 7.33926 69.8998 5.81631 69.3548C4.36741 68.8412 2.99256 68.359 0.18222 68.367L0.177734 66.7822C3.2839 66.7734 4.8597 67.3289 6.38265 67.874C7.83154 68.3876 9.20639 68.8697 12.0167 68.8618C14.8271 68.8538 16.1992 68.3639 17.6451 67.8421C19.165 67.299 20.7376 66.724 23.8438 66.7152C26.9499 66.7064 28.5257 67.2619 30.0487 67.807C31.4976 68.3206 32.8724 68.8027 35.6828 68.7948C38.4931 68.7868 39.8652 68.2969 41.3112 67.7752C42.831 67.232 44.4037 66.657 47.5098 66.6483C50.616 66.6395 52.1918 67.195 53.7147 67.74C55.1636 68.2536 56.5385 68.7357 59.3488 68.7278C62.1592 68.7198 63.5313 68.23 64.9772 67.7082C66.4971 67.165 68.0697 66.5901 71.1759 66.5813C74.282 66.5725 75.8578 67.128 77.3808 67.6731C78.8297 68.1867 80.2045 68.6688 83.0149 68.6608C85.8252 68.6529 87.1973 68.163 88.6433 67.6412C90.1631 67.098 91.7357 66.5231 94.8419 66.5143C97.9481 66.5055 99.5239 67.061 101.047 67.6061C102.496 68.1197 103.871 68.6018 106.681 68.5938C109.491 68.5859 110.863 68.096 112.309 67.5742C113.829 67.0311 115.402 66.4561 118.508 66.4473L118.512 68.0321C115.702 68.04 114.33 68.5299 112.884 69.0517C111.364 69.5948 109.792 70.1698 106.685 70.1786Z" fill="#0D1D28"/>
<path d="M106.715 80.0888C103.609 80.0975 102.033 79.542 100.51 78.997C99.0609 78.4834 97.686 78.0013 94.8757 78.0092C92.0653 78.0172 90.6933 78.507 89.2473 79.0288C87.7274 79.572 86.1548 80.147 83.0487 80.1557C79.9425 80.1645 78.3667 79.609 76.8437 79.064C75.3948 78.5504 74.02 78.0682 71.2097 78.0762C68.3993 78.0842 67.0272 78.574 65.5812 79.0958C64.0614 79.639 62.4888 80.2139 59.3826 80.2227C56.2764 80.2315 54.7006 79.676 53.1777 79.1309C51.7288 78.6173 50.3539 78.1352 47.5436 78.1432C44.7333 78.1511 43.3612 78.641 41.9152 79.1628C40.3953 79.7059 38.8227 80.2809 35.7166 80.2897C32.6104 80.2985 31.0346 79.743 29.5117 79.1979C28.0628 78.6843 26.6879 78.2022 23.8776 78.2102C21.0672 78.2181 19.6951 78.708 18.2492 79.2298C16.7293 79.7729 15.1567 80.3479 12.0505 80.3567C8.94435 80.3655 7.36855 79.81 5.84561 79.2649C4.39671 78.7513 3.02186 78.2692 0.211517 78.2772L0.207031 76.6924C3.3132 76.6836 4.889 77.2391 6.41194 77.7842C7.86084 78.2978 9.23569 78.7799 12.046 78.7719C14.8564 78.764 16.2285 78.2741 17.6744 77.7523C19.1943 77.2092 20.7669 76.6342 23.8731 76.6254C26.9792 76.6166 28.555 77.1721 30.078 77.7172C31.5269 78.2308 32.9017 78.7129 35.7121 78.7049C38.5224 78.697 39.8945 78.2071 41.3405 77.6853C42.8603 77.1422 44.433 76.5672 47.5391 76.5584C50.6453 76.5496 52.2211 77.1051 53.744 77.6502C55.1929 78.1638 56.5678 78.6459 59.3781 78.638C62.1885 78.63 63.5606 78.1401 65.0065 77.6183C66.5264 77.0752 68.099 76.5002 71.2052 76.4914C74.3113 76.4826 75.8871 77.0381 77.4101 77.5832C78.859 78.0968 80.2338 78.5789 83.0442 78.571C85.8545 78.563 87.2266 78.0731 88.6726 77.5513C90.1924 77.0082 91.765 76.4332 94.8712 76.4244C97.9774 76.4156 99.5532 76.9711 101.076 77.5162C102.525 78.0298 103.9 78.5119 106.71 78.504C109.521 78.496 110.893 78.0061 112.339 77.4843C113.858 76.9412 115.431 76.3662 118.537 76.3574L118.542 77.9422C115.731 77.9502 114.359 78.4401 112.913 78.9619C111.393 79.505 109.821 80.08 106.715 80.0888Z" fill="#0D1D28"/>
<path d="M37.8811 36.1108C37.5219 36.1118 37.1833 35.9121 37.0133 35.585C36.2804 34.203 34.2957 31.0179 31.6447 31.353L31.4501 29.7793C34.1856 29.4546 36.2941 31.5934 37.5247 33.3754C37.9836 31.2611 39.1803 28.5213 42.3275 28.0581L42.5643 29.6211C39.5756 30.0733 38.973 33.6672 38.8505 35.1889C38.8201 35.6327 38.5042 35.9928 38.0713 36.0892C38.0079 36.0999 37.934 36.1107 37.8706 36.1109L37.8811 36.1108Z" fill="#0D1D28"/>
<path d="M24.7754 29.6813C24.3317 29.6825 23.9295 29.4407 23.7064 29.0187C22.0388 25.8855 17.507 18.6823 11.244 19.4395L11.0493 17.8659C17.587 17.0761 22.3172 23.4441 24.5042 27.1886C25.0414 22.887 27.0379 15.2744 34.4727 14.1651L34.7095 15.7281C27.6338 16.7835 26.2414 25.039 25.966 28.5368C25.9253 29.0864 25.5463 29.5417 25.0183 29.6489C24.9444 29.6702 24.8599 29.6705 24.7859 29.6707L24.7754 29.6813Z" fill="#0D1D28"/>
</g>
<defs>
<clipPath id="clip0_1432_1507">
<rect width="118.331" height="80" fill="white" transform="translate(0 0.390625) rotate(-0.162178)"/>
</clipPath>
</defs>
</svg>
