<svg width="113" height="81" viewBox="0 0 113 81" fill="none" xmlns="http://www.w3.org/2000/svg">
<g clip-path="url(#clip0_1432_1805)">
<path d="M66.163 16.1471L40.303 2.00586C40.073 1.87912 39.813 1.87912 39.593 2.00586L13.463 15.6824L12.793 14.2672L38.923 0.580114C39.583 0.231599 40.333 0.24216 40.993 0.601236L66.853 14.7425L66.163 16.1471Z" fill="#0D1D28"/>
<path d="M23.4433 73.0178C19.1233 73.0178 15.6133 69.3108 15.6133 64.7484V55.8455C15.6133 51.2831 19.1233 47.5762 23.4433 47.5762C27.7633 47.5762 31.2733 51.2831 31.2733 55.8455V64.7484C31.2733 69.3108 27.7633 73.0178 23.4433 73.0178ZM23.4433 49.1709C19.9533 49.1709 17.1133 52.1702 17.1133 55.856V64.759C17.1133 68.4448 19.9533 71.4442 23.4433 71.4442C26.9333 71.4442 29.7733 68.4448 29.7733 64.759V55.856C29.7733 52.1702 26.9333 49.1709 23.4433 49.1709Z" fill="#0D1D28"/>
<path d="M89.5136 71.5182C85.1936 71.5182 81.6836 67.8112 81.6836 63.2489V44.0066C81.6836 39.4442 85.1936 35.7373 89.5136 35.7373C93.8336 35.7373 97.3436 39.4442 97.3436 44.0066V63.2489C97.3436 67.8112 93.8336 71.5182 89.5136 71.5182ZM89.5136 37.3215C86.0236 37.3215 83.1836 40.3208 83.1836 44.0066V63.2489C83.1836 66.9347 86.0236 69.934 89.5136 69.934C93.0036 69.934 95.8436 66.9347 95.8436 63.2489V44.0066C95.8436 40.3208 93.0036 37.3215 89.5136 37.3215Z" fill="#0D1D28"/>
<path d="M24.1934 56.5742H22.6934V79.534H24.1934V56.5742Z" fill="#0D1D28"/>
<path d="M40.5625 15.4492H39.0625V34.6809H40.5625V15.4492Z" fill="#0D1D28"/>
<path d="M48.1534 24.2686H29.9434V25.8527H48.1534V24.2686Z" fill="#0D1D28"/>
<path d="M112.223 78.7422H0.222656V80.3263H112.223V78.7422Z" fill="#0D1D28"/>
<path d="M90.2617 52.7725H88.7617V79.5342H90.2617V52.7725Z" fill="#0D1D28"/>
<path d="M46.2422 79.5339H44.7422V30.6046L64.4322 21.6382C65.5922 21.1102 66.9222 21.1102 68.0822 21.6382L87.2222 30.4673V37.2369H85.7222V31.5023L67.4822 23.0851C66.7022 22.726 65.8122 22.726 65.0222 23.0851L46.2322 31.6395V79.5234L46.2422 79.5339Z" fill="#0D1D28"/>
<path d="M24.1934 48.379H22.6934V9.54597L38.6234 0.674687C39.4634 0.21 40.4634 0.21 41.2934 0.674687L56.9334 9.54597V26.2536H55.4334V10.4859L40.5834 2.06875C40.1834 1.84696 39.7134 1.84696 39.3134 2.06875L24.1934 10.4965V48.3684V48.379Z" fill="#0D1D28"/>
<path d="M62.1732 47.1965H55.6132C54.4632 47.1965 53.5332 46.2143 53.5332 44.9998V38.0717C53.5332 36.8572 54.4632 35.875 55.6132 35.875H62.1732C63.3232 35.875 64.2532 36.8572 64.2532 38.0717V44.9998C64.2532 46.2143 63.3232 47.1965 62.1732 47.1965ZM55.6132 37.4592C55.2932 37.4592 55.0332 37.7337 55.0332 38.0717V44.9998C55.0332 45.3377 55.2932 45.6123 55.6132 45.6123H62.1732C62.4932 45.6123 62.7532 45.3377 62.7532 44.9998V38.0717C62.7532 37.7337 62.4932 37.4592 62.1732 37.4592H55.6132Z" fill="#0D1D28"/>
<path d="M62.1732 62.6047H55.6132C54.4632 62.6047 53.5332 61.6225 53.5332 60.408V53.4799C53.5332 52.2654 54.4632 51.2832 55.6132 51.2832H62.1732C63.3232 51.2832 64.2532 52.2654 64.2532 53.4799V60.408C64.2532 61.6225 63.3232 62.6047 62.1732 62.6047ZM55.6132 52.8674C55.2932 52.8674 55.0332 53.142 55.0332 53.4799V60.408C55.0332 60.7459 55.2932 61.0205 55.6132 61.0205H62.1732C62.4932 61.0205 62.7532 60.7459 62.7532 60.408V53.4799C62.7532 53.142 62.4932 52.8674 62.1732 52.8674H55.6132Z" fill="#0D1D28"/>
<path d="M76.222 47.0588H69.662C68.512 47.0588 67.582 46.0766 67.582 44.8621V37.934C67.582 36.7195 68.512 35.7373 69.662 35.7373H76.222C77.372 35.7373 78.302 36.7195 78.302 37.934V44.8621C78.302 46.0766 77.372 47.0588 76.222 47.0588ZM69.662 37.3215C69.342 37.3215 69.082 37.5961 69.082 37.934V44.8621C69.082 45.2 69.342 45.4746 69.662 45.4746H76.222C76.542 45.4746 76.802 45.2 76.802 44.8621V37.934C76.802 37.5961 76.542 37.3215 76.222 37.3215H69.662Z" fill="#0D1D28"/>
<path d="M76.3627 62.6047H69.8027C68.6527 62.6047 67.7227 61.6225 67.7227 60.408V53.4799C67.7227 52.2654 68.6527 51.2832 69.8027 51.2832H76.3627C77.5127 51.2832 78.4427 52.2654 78.4427 53.4799V60.408C78.4427 61.6225 77.5127 62.6047 76.3627 62.6047ZM69.8027 52.8674C69.4827 52.8674 69.2227 53.142 69.2227 53.4799V60.408C69.2227 60.7459 69.4827 61.0205 69.8027 61.0205H76.3627C76.6827 61.0205 76.9427 60.7459 76.9427 60.408V53.4799C76.9427 53.142 76.6827 52.8674 76.3627 52.8674H69.8027Z" fill="#0D1D28"/>
<path d="M45.5029 35.4838H32.2729C30.9929 35.4838 29.9629 34.3855 29.9629 33.0442V17.1076C29.9629 15.7558 31.0029 14.668 32.2729 14.668H47.3629C48.6429 14.668 49.6729 15.7663 49.6729 17.1076V29.5802H48.1729V17.1076C48.1729 16.6218 47.8129 16.2521 47.3629 16.2521H32.2729C31.8229 16.2521 31.4629 16.6429 31.4629 17.1076V33.0442C31.4629 33.5089 31.8329 33.8997 32.2729 33.8997H45.5029V35.4838Z" fill="#0D1D28"/>
</g>
<defs>
<clipPath id="clip0_1432_1805">
<rect width="112" height="80" fill="white" transform="translate(0.222656 0.326172)"/>
</clipPath>
</defs>
</svg>
