<svg width="84" height="81" viewBox="0 0 84 81" fill="none" xmlns="http://www.w3.org/2000/svg">
<g clip-path="url(#clip0_1432_1524)">
<path d="M79.2847 80.1421L4.83703 80.3528C3.32961 80.3571 2.10535 79.1397 2.10108 77.6323L2.03702 54.9997C2.03275 53.4923 3.2501 52.268 4.75752 52.2638L79.2158 52.053C80.7232 52.0487 81.9475 53.2661 81.9518 54.7735L82.0158 77.4061C82.0201 78.9135 80.8027 80.1378 79.2953 80.1421L79.2847 80.1421ZM4.762 53.8455C4.13568 53.8473 3.62757 54.3583 3.62934 54.9846L3.6934 77.6172C3.69517 78.2435 4.20617 78.7516 4.83249 78.7499L79.2908 78.5391C79.9171 78.5373 80.4252 78.0263 80.4234 77.4L80.3594 54.7674C80.3576 54.1411 79.8466 53.633 79.2203 53.6347L4.762 53.8455Z" fill="#0D1D28"/>
<path d="M71.0795 53.6571L47.3429 53.7243C46.2813 53.7273 45.419 52.8699 45.416 51.8083L45.3922 43.3794C45.3892 42.3179 46.2466 41.4556 47.3082 41.4526L71.0448 41.3854C72.1064 41.3824 72.9687 42.2398 72.9717 43.3014L72.9955 51.7302C72.9985 52.7918 72.1411 53.6541 71.0795 53.6571ZM47.3126 43.0343C47.1322 43.0348 46.984 43.1839 46.9845 43.3643L47.0083 51.7932C47.0088 51.9736 47.1579 52.1218 47.3384 52.1213L71.075 52.0541C71.2555 52.0536 71.4036 51.9046 71.4031 51.7241L71.3793 43.2953C71.3788 43.1148 71.2297 42.9666 71.0493 42.9671L47.3126 43.0343Z" fill="#0D1D28"/>
<path d="M43.0476 74.2142L42.9945 74.2144C38.164 74.0901 34.6782 72.7517 32.6222 70.2204C30.1507 67.1807 30.5221 63.3473 30.7938 61.8391C30.9298 61.1169 31.6289 60.6053 32.3296 60.5927C37.2024 60.6851 40.7412 62.002 42.829 64.5015C45.3002 67.4563 45.0031 71.2469 44.7631 72.7444C44.6276 73.5941 43.8862 74.2119 43.0369 74.2143L43.0476 74.2142ZM32.3128 62.1851C32.1358 63.4171 31.8054 66.6983 33.8614 69.219C35.6085 71.369 38.7009 72.5174 43.043 72.6219C43.1067 72.6217 43.1915 72.5684 43.2125 72.4834C43.4212 71.2089 43.6774 67.9704 41.6217 65.524C39.8322 63.3953 36.708 62.2682 32.3128 62.1851Z" fill="#0D1D28"/>
<path d="M21.2585 53.3416L21.2161 53.3417C17.9993 53.2553 15.6612 52.3489 14.2763 50.6437C12.6039 48.589 12.8513 45.9981 13.0289 44.9784C13.1333 44.373 13.6736 43.9575 14.3104 43.9345C17.559 43.9996 19.9289 44.8846 21.3349 46.5685C23.0072 48.5702 22.8128 51.1291 22.6564 52.1381C22.5522 52.8178 21.9485 53.329 21.2585 53.331L21.2585 53.3416ZM14.5591 45.5367C14.4344 46.4607 14.3757 48.2443 15.5156 49.6423C16.5808 50.9451 18.4618 51.651 21.116 51.7496C21.2409 50.8788 21.31 49.0208 20.1276 47.6017C19.0624 46.3202 17.1921 45.6354 14.5697 45.5367L14.5591 45.5367Z" fill="#0D1D28"/>
<path d="M28.8913 53.3203L28.8489 53.3204C25.6321 53.234 23.294 52.3276 21.9092 50.6224C20.2366 48.5571 20.4841 45.9768 20.6617 44.9571C20.7767 44.3411 21.285 43.9044 21.9432 43.9132C25.1918 43.9783 27.5511 44.8633 28.9677 46.5472C30.6401 48.5489 30.4456 51.1078 30.2892 52.1168C30.1744 52.8071 29.5813 53.3077 28.8913 53.3097L28.8913 53.3203ZM22.1813 45.5155C22.0566 46.4394 22.0085 48.223 23.1378 49.6211C24.203 50.9238 26.084 51.6297 28.7382 51.7284C28.8525 50.8575 28.9322 48.9996 27.7498 47.5804C26.6846 46.2989 24.8143 45.6142 22.192 45.5261L22.1813 45.5155Z" fill="#0D1D28"/>
<path d="M20.612 46.2635L20.5696 46.2636C17.3528 46.1772 15.0147 45.2708 13.6299 43.5656C11.9573 41.5003 12.2048 38.9199 12.3824 37.9003C12.4975 37.2949 13.0164 36.8582 13.6321 36.8564L13.6533 36.8564C16.9019 36.9215 19.2718 37.8065 20.6778 39.4904C22.3501 41.4921 22.1557 44.051 21.9993 45.06C21.8845 45.7503 21.2914 46.2509 20.6014 46.2529L20.612 46.2635ZM13.9021 38.4693C13.7773 39.3932 13.7186 41.1768 14.8585 42.5749C15.9237 43.8776 17.8047 44.5835 20.4589 44.6822C20.5733 43.8113 20.6529 41.9534 19.4706 40.5342C18.4054 39.2527 16.535 38.568 13.9127 38.4692L13.9021 38.4693Z" fill="#0D1D28"/>
<path d="M28.4773 45.933L28.4348 45.9331C25.218 45.8467 22.88 44.9403 21.4951 43.2351C19.8226 41.1698 20.0701 38.5894 20.2476 37.5698C20.3521 36.9644 20.8815 36.4958 21.5292 36.5258C24.7778 36.591 27.137 37.476 28.5537 39.1599C30.226 41.1615 30.0315 43.7205 29.8752 44.7294C29.7709 45.4091 29.1673 45.9204 28.4773 45.9224L28.4773 45.933ZM21.7779 38.1281C21.6531 39.052 21.6051 40.8356 22.7343 42.2337C23.7996 43.5364 25.6806 44.2424 28.3348 44.341C28.4597 43.4702 28.5288 41.6122 27.3464 40.1931C26.2812 38.9116 24.4109 38.2268 21.7885 38.1281L21.7779 38.1281Z" fill="#0D1D28"/>
<path d="M36.407 53.2988L36.3645 53.2989C33.1477 53.2125 30.8097 52.3062 29.4248 50.6009C27.7523 48.5356 27.9997 45.9553 28.1773 44.9357C28.2923 44.3196 28.8113 43.8829 29.4589 43.8917C32.7075 43.9568 35.0667 44.8419 36.4833 46.5257C38.1557 48.5274 37.9612 51.0863 37.8048 52.0953C37.69 52.7856 37.097 53.2862 36.4069 53.2882L36.407 53.2988ZM29.697 45.494C29.5722 46.4179 29.5241 48.2015 30.6534 49.5996C31.7186 50.9023 33.5996 51.6082 36.2538 51.7069C36.3681 50.8361 36.4478 48.9781 35.2655 47.5589C34.2002 46.2774 32.3299 45.5927 29.7076 45.5046L29.697 45.494Z" fill="#0D1D28"/>
<path d="M44.2409 71.9712L43.7696 70.4545C50.9395 68.2367 53.0345 65.7786 53.5393 64.1105C54.0336 62.453 53.0428 61.2244 53.0002 61.1714C51.7227 59.8905 50.4048 59.3422 49.121 59.5794C45.8954 60.1724 43.5744 65.2746 43.5533 65.3277L42.0972 64.6843C42.2026 64.4398 44.7768 58.7637 48.8299 58.0197C50.6655 57.6854 52.4615 58.381 54.1755 60.1065C54.282 60.223 55.8052 62.0446 55.0798 64.5307C54.2177 67.5162 50.573 70.0318 44.2516 71.9818L44.2409 71.9712Z" fill="#0D1D28"/>
<path d="M55.5709 56.3475L53.0723 59.083L54.248 60.1569L56.7466 57.4213L55.5709 56.3475Z" fill="#0D1D28"/>
<path d="M53.6161 30.2494L52.0957 33.6279L53.5478 34.2814L55.0682 30.9028L53.6161 30.2494Z" fill="#0D1D28"/>
<path d="M59.4969 30.2367L57.9766 33.6152L59.4287 34.2687L60.949 30.8901L59.4969 30.2367Z" fill="#0D1D28"/>
<path d="M65.5418 30.3265L64.0215 33.7051L65.4736 34.3585L66.9939 30.98L65.5418 30.3265Z" fill="#0D1D28"/>
<path d="M57.8437 61.0564L54.8125 61.4551L55.0201 63.0338L58.0514 62.6352L57.8437 61.0564Z" fill="#0D1D28"/>
<path d="M8.28571 23.0707L6.69336 23.0752L6.77819 53.0432L8.37054 53.0387L8.28571 23.0707Z" fill="#0D1D28"/>
<path d="M77.7623 22.3851L76.1699 22.3896L76.2561 52.846L77.8485 52.8415L77.7623 22.3851Z" fill="#0D1D28"/>
<path d="M80.7051 19.0654L2.77552 19.286C1.8838 19.2885 1.07575 18.8449 0.627791 18.1031C0.211797 17.4036 0.177576 16.5651 0.557697 15.8421L8.04406 1.63828C8.46643 0.840907 9.31427 0.339566 10.2485 0.336922L72.934 0.159488C73.8575 0.156874 74.7082 0.642791 75.135 1.42715L82.8821 15.5879C83.277 16.3086 83.2581 17.1579 82.8461 17.8597C82.4024 18.6147 81.5968 19.0629 80.6945 19.0654L80.7051 19.0654ZM10.253 1.92927C9.91326 1.93023 9.5953 2.1116 9.44743 2.37741L1.97168 16.5812C1.81332 16.8895 1.9202 17.144 1.99487 17.2712C2.15485 17.5361 2.4419 17.6839 2.7816 17.683L80.7006 17.4624C81.0403 17.4615 81.3265 17.3014 81.485 17.0356C81.5589 16.908 81.6643 16.6423 81.4936 16.3349L73.7465 2.17418C73.5971 1.90921 73.2887 1.72962 72.949 1.73058L10.2529 1.90804L10.253 1.92927Z" fill="#0D1D28"/>
<path d="M74.2213 23.9556C71.854 23.9623 70.6402 22.7025 69.5755 21.6014C68.6067 20.5957 67.7762 19.7275 66.0777 19.7323C64.3792 19.7372 63.5536 20.61 62.5904 21.6212C61.532 22.7389 60.336 23.9949 57.9581 24.0016C55.5802 24.0084 54.377 22.7485 53.3123 21.6475C52.3434 20.6417 51.513 19.7736 49.8145 19.7784C48.116 19.7832 47.2904 20.656 46.3378 21.6672C45.2794 22.7849 44.0834 24.0409 41.7055 24.0476C39.3276 24.0544 38.1244 22.7945 37.0597 21.6935C36.0909 20.6877 35.2604 19.8196 33.5725 19.8244C31.8846 19.8291 31.0484 20.702 30.0959 21.7132C29.0375 22.8308 27.8414 24.0869 25.4635 24.0936C23.0856 24.1003 21.8825 22.8405 20.8178 21.7394C19.8489 20.7337 19.0184 19.8655 17.3305 19.8703C15.6426 19.8751 14.8064 20.748 13.8539 21.7592C12.7955 22.8768 11.5995 24.1328 9.22155 24.1396C5.64407 24.1497 2.91705 20.8347 1.60682 19.246C1.40443 19.0025 1.17007 18.7165 1.09558 18.653L1.95167 17.313C2.19622 17.4503 2.39861 17.6939 2.846 18.234C3.99648 19.6427 6.40389 22.5552 9.22766 22.5472C10.9155 22.5424 11.7517 21.6696 12.7043 20.6584C13.7627 19.5407 14.9587 18.2847 17.3366 18.2779C19.7145 18.2712 20.9177 19.5311 21.9824 20.6321C22.9513 21.6379 23.7817 22.506 25.4696 22.5012C27.1575 22.4964 27.9937 21.6236 28.9462 20.6124C30.0047 19.4947 31.2007 18.2387 33.5786 18.232C35.9565 18.2252 37.1597 19.4851 38.2243 20.5861C39.1932 21.5919 40.0237 22.46 41.7116 22.4553C43.3995 22.4505 44.2357 21.5776 45.1988 20.5664C46.2572 19.4487 47.4533 18.1927 49.8312 18.186C52.2091 18.1792 53.4122 19.4391 54.4769 20.5401C55.4458 21.5459 56.2763 22.414 57.9748 22.4092C59.6733 22.4044 60.4989 21.5316 61.462 20.5204C62.5205 19.4027 63.7165 18.1467 66.0944 18.1399C68.4723 18.1332 69.6754 19.3931 70.7401 20.4941C71.709 21.4998 72.5395 22.368 74.238 22.3632C77.5713 22.3537 80.8081 18.2575 81.1565 17.5453L81.7624 17.8408L82.6854 17.6577C82.7392 17.9124 82.7931 18.1882 81.7034 19.5076C80.6138 20.8377 77.6926 23.9458 74.2531 23.9555L74.2213 23.9556Z" fill="#0D1D28"/>
<path d="M56.4817 42.5842L55.0783 41.8344C55.2473 41.5261 55.3312 41.1755 55.3302 40.8146L55.3197 37.1203C55.3162 35.8677 54.2942 34.8621 53.0522 34.8656C51.8102 34.8691 50.7833 35.8911 50.7869 37.1332L50.7973 40.8274C50.7984 41.199 50.8843 41.5384 51.0444 41.8564L49.6452 42.6035C49.3571 42.0629 49.2068 41.4689 49.205 40.8319L49.1945 37.1377C49.1885 35.0145 50.914 33.2793 53.0477 33.2732C55.1814 33.2672 56.9061 34.9927 56.9121 37.1158L56.9225 40.8101C56.9244 41.447 56.7774 42.0419 56.4923 42.5841L56.4817 42.5842Z" fill="#0D1D28"/>
<path d="M62.595 42.5676L61.1916 41.8284C61.3606 41.5201 61.4445 41.1695 61.4435 40.798L61.433 37.1037C61.4295 35.8511 60.4075 34.8455 59.1655 34.849C57.9235 34.8525 56.8966 35.8745 56.9001 37.1166L56.9106 40.8108C56.9116 41.1824 56.9975 41.5218 57.1577 41.8398L55.7585 42.5869C55.4703 42.0463 55.32 41.4523 55.3182 40.8153L55.3078 37.1211C55.3018 34.9979 57.0272 33.2627 59.161 33.2566C61.2947 33.2506 63.0194 34.9761 63.0254 37.0992L63.0358 40.7935C63.0376 41.4198 62.8907 42.0253 62.6056 42.5675L62.595 42.5676Z" fill="#0D1D28"/>
<path d="M61.8855 42.5683C61.5973 42.0278 61.447 41.4337 61.4452 40.7968L61.4347 37.1025C61.4287 34.9794 63.1542 33.2441 65.2879 33.2381C67.4217 33.232 69.1463 34.9575 69.1523 37.0807L69.1628 40.7749C69.1646 41.4012 69.0176 42.0068 68.7326 42.549L67.3292 41.8098C67.4982 41.5015 67.5715 41.151 67.5704 40.7794L67.56 37.0852C67.5564 35.8325 66.5345 34.8269 65.2924 34.8304C64.0504 34.834 63.0236 35.856 63.0271 37.098L63.0375 40.7923C63.0386 41.1638 63.1245 41.5033 63.2952 41.8106L61.8961 42.5683L61.8855 42.5683Z" fill="#0D1D28"/>
</g>
<defs>
<clipPath id="clip0_1432_1524">
<rect width="82.8768" height="80" fill="white" transform="translate(0.248047 0.365234) rotate(-0.162178)"/>
</clipPath>
</defs>
</svg>
